<svg enable-background="new 0 0 240 240" viewBox="0 0 240 240" xmlns="http://www.w3.org/2000/svg"><path d="m100.1970749 88.1477356s-.5249329 8.5397568-3.9356689 19.3619232l.0004349.007576c-.5437622 1.7202454-1.1597061 3.4904861-1.8564835 5.2964325-1.2835007 3.3324966-2.8462982 6.7816391-4.760025 10.1784134-1.8037872 3.2308807-3.9279861 6.414917-6.4034424 9.4256897l.113945.468338c.1374283.5951691.2889252 1.1744232.4112091 1.7705688l.3446503 1.7901459.426033 2.2227783.138298.7236176.8135376 4.2064209c.5116196 2.3759003.7915649 4.789566 1.1537552 7.1903534l1.0418625 7.2127533-1.4300232.0792084-.9907837-7.1255341c-.3456345-2.3792572-.6090164-4.7713928-1.0960846-7.1186066l-.6306534-3.3801117-.1392746-.7385559-.5582581-2.9695435-.3281021-1.7685089c-.1218491-.5886688-.2658768-1.1683655-.4027634-1.7560577l-.3483353-1.5027466c-21.6125183-5.1923294-35.1495781-25.1550446-35.1495781-25.1550446 20.1957741 4.4397125 31.3777428 18.5829086 34.7733269 23.5709381l-.0950089-.4091492c-1.3544922-6.1121368-3.0345917-12.1196289-4.9047089-18.0314636-20.0339203-1.6406021-33.7985001-18.4082565-33.7985001-18.4082565 19.447113 1.3317642 30.710022 13.9513321 33.5123901 17.5055542-.9132004-2.8553925-1.8712006-5.7002792-2.8648071-8.5127106-.845459-2.3990555-1.7351761-4.7801514-2.6602783-7.1287842-16.6750257.615616-28.9925039-11.8437957-28.9925039-11.8437957 14.4449272-1.1031113 24.1532631 6.0370331 28.1342735 9.7099686-1.4692993-3.6119003-3.0247345-7.1576843-4.6590652-10.6377792-13.6931343.8193817-23.8825417-9.4916992-23.8825417-9.4916992 12.8966522-.9859161 21.0904617 6.2086639 23.4955788 8.6636658-.7989273-1.6922226-1.6203651-3.3829193-2.4477539-5.0505753-1.3817596-2.7414398-2.8216248-5.4487915-4.3036957-8.1081009-10.5468979.6498108-18.3966522-7.2850456-18.3966522-7.2850456 9.9279213-.7600784 16.2147751 4.7775536 18.0532951 6.658062-1.7533569-3.1096878-3.5694771-6.1398354-5.4764977-9.058094-11.3803673-9.2431374-15.9052353-23.5758057-15.9052353-23.5758057 9.4849777 7.5325241 13.7429466 16.784317 15.3485947 21.2029343 3.0912895 4.5020485 5.9520874 9.2836113 8.6495934 14.2269478-.8814926-3.2880173-2.5663528-12.0068703.1955414-23.2772522 0 0 3.2973251 11.5206757.3301544 24.2623062.7579155 1.4154129 1.5163727 2.8383942 2.2453957 4.2707977 1.3881454 2.7259674 2.7267227 5.500412 4.0220184 8.3079681-.4547043-4.6077728-1.0206528-18.6953354 6.7254791-34.1086121 0 0 1.8705521 18.4126892-6.2504272 35.1272125 1.4826126 3.2409439 2.8929367 6.5318909 4.2240524 9.8809357.0405807.0426407.0651474.0712051.0651474.0712051l-.0376587.0024872c.3062363.7502365.5905075 1.5095596.8902588 2.2753754-.4468079-5.8621674-.4771042-20.1889877 7.3552704-35.7817879 0 0 2.0015945 19.710804-6.6317673 37.705471.3021317.8034744.6039276 1.5993729.8915558 2.4112854 1.2291794 3.4085693 2.4002533 6.8513336 3.5132141 10.3280716.0793152-6.8184357 1.5159378-22.9565125 12.1521912-38.983345 0 0 .3749619 22.6505966-11.4234924 41.3297043 1.5178833 4.9229889 2.8888245 9.9084244 4.0457153 14.9685211l.3638077 1.5093384c.3457413-5.6424942 2.2881393-21.7837067 13.3142853-37.5114441 1.2220382-1.7422104 2.5574798-3.4844208 4.0152053-5.2045593z" fill="#69c5ff"/><path d="m174.1138153 136.6713715c-.2949829.7974091-.6053314 1.5883331-.9082184 2.3787079 1.5315247-1.9741058 4.1053467-4.9838104 7.7691803-8.29953 1.0263977-.9287872 2.1416321-1.8860321 3.3472137-2.8492203 2.4034882-1.9258423 5.1669006-3.8906479 8.2767029-5.757309 3.364624-2.0119781 7.1446838-3.9077454 11.3584595-5.529953 0 0-2.4481812 3.3111801-6.8739471 7.6740646-3.5607147 3.5053101-8.3980103 7.6990662-14.2732544 11.387146-.4784088.303421-.9574585.5993805-1.4521027.8887482-2.4491577 1.4606323-5.0632324 2.8263855-7.8330231 4.0058899-.3666229.1677246-.7343292.3203125-1.1093903.4735413-.3305969.8299866-.6611786 1.6599579-.9995575 2.4829102-1.447113 3.4868164-2.9472504 6.9696045-4.5322418 10.4278412 1.700119-1.8267212 4.3310852-4.4247742 7.8772888-7.2341766 2.0242157-1.6062927 4.3387604-3.2770844 6.9424438-4.9140167.3406525-.2189026.6893158-.4306793 1.0384064-.6349792 5.6639099-3.4550934 12.6261597-6.6935577 20.8358765-8.7679749 0 0-2.3673553 2.7015076-6.5830688 6.3557129-.2217255.1882935-.4429169.3841553-.6717834.5805511-3.5975037 3.0620728-8.3957214 6.7017822-14.1242523 9.9798431-.4077454.2308197-.8154907.4616394-1.238266.6934357-1.4359741.789505-2.92659 1.5525055-4.4653625 2.2733154-2.857666 1.3364105-5.8827209 2.5403748-9.0590668 3.5126648-.2145844.0669861-.4292755.1340637-.6444092.1934814-.3335114.0976105-.6594391.1945648-.9933777.2845917-2.2778625 4.8633728-4.7180481 9.6696014-7.3682709 14.3838501l-.775116 1.4182281c1.6105194-1.5790253 4.4836578-4.1703796 8.5102234-7.0266266.2242126-.1507416.447998-.3089447.679245-.4676971 4.145813-2.8791962 9.4485168-5.9705963 15.7995911-8.5116272 3.8932495-1.5557556 8.1777802-2.9032135 12.8275452-3.8668365.2162018-.0444794.432312-.0889587.6488342-.1258545.1339722-.0314941.2683716-.0554047.402771-.079422.3204041-.066452.6412659-.1253204.9697876-.1847229 1.1347198-.2032166 2.2858734-.3847961 3.4617004-.5379181 0 0-3.236618 3.1516724-8.7841034 7.1126556-.6275177.449295-1.2846832.9080048-1.971405 1.376236-2.0891418 1.4217987-4.4462128 2.9065704-7.023819 4.3680878-4.9524231 2.7887268-10.74263 5.4741211-17.0841675 7.3574371-.222702.0600586-.4372864.1270447-.6598816.1871033-2.7651367.7940521-5.6313477 1.4286041-8.5791473 1.8570251l-.2425079.4464722c-.3113251.5492859-.5993805 1.1046295-.9257507 1.6547852l-.980835 1.6206818-3.9536285 6.4846039c-1.2680206 2.1909637-2.749115 4.2448273-4.151001 6.3539886l-.8602905 1.2727814-2.2917023 3.3914795-1.0937042 1.6280365-1.1649017-.9428406 3.4716644-5.0856323.7577972-1.1074524c.7153931-1.0668488 1.4541626-2.1201935 2.1774445-3.1800232l-.0005493-.0074615c.6816254-1.0042114 1.3471375-2.0224762 1.9651337-3.0753784l3.94487-6.3858032.9823456-1.5980835c.3269043-.5426788.6156158-1.0904388.9268341-1.6397247l.7836761-1.4037323c-3.9808044-5.8483124-6.4111328-12.2369232-7.8744812-18.281311-3.3161469-13.755249-1.6069489-25.7569351-1.6069489-25.7569351 3.0639191 4.3150558 5.2942657 8.7000198 6.9043579 12.9597855 4.9555664 13.0730896 4.0582733 24.9004364 3.4008789 29.5966034l.2164307-.3843689c3.2294769-5.6663971 6.1477356-11.4708862 8.8500061-17.3441925-4.2831421-4.5897064-7.1810608-9.8219757-9.140564-14.912262-4.5834198-11.8965988-4.02948-22.9761963-4.02948-22.9761963 6.5285339 6.7983017 9.9871979 14.2369995 11.7896881 20.7274475 2.09552 7.4983368 1.9705353 13.7381592 1.7896118 16.2653351 1.3001556-2.8501892 2.5542297-5.7125092 3.7626343-8.579361.6202698-1.4760132 1.2250671-2.9585266 1.8067017-4.4471893.3893433-.9698029.7635498-1.9386139 1.1297302-2.9144745-13.2925262-11.209343-14.0567169-29.4532242-14.0567169-29.4532242 11.9112091 9.2760315 14.3991089 21.5826492 14.8977509 27.1997147 1.3955994-3.808197 2.6770477-7.6316452 3.8595886-11.4635391-11.1353302-8.9647064-11.7678375-24.0599442-11.7678375-24.0599442 10.6371307 8.2798309 11.9174957 19.5708771 12.0477753 23.1502075.5714722-1.8731537 1.1277924-3.7453232 1.6466675-5.6150131.0427399-.1538773.0849457-.3152161.1276855-.4690933.8113708-2.9313583 1.5626984-5.8587036 2.2451782-8.7966537-1.1483307-.9213181-2.1508179-1.9203339-3.0209503-2.9733429-5.698761-6.8151855-6.0626831-15.5456161-6.0626831-15.5456161 2.3570709 1.8387375 4.1146545 3.8681412 5.426178 5.8889999 3.2451782 4.9979858 3.7608032 9.9567947 3.828537 11.9011459.8339996-3.620224 1.5545807-7.2404556 2.1269073-10.8206482-2.3024139-15.1061707 4.2525177-29.3381958 4.2525177-29.3381958 2.0376282 12.4647141-1.1555939 22.5776596-3.0170593 27.1115189-.7758789 5.6482315-1.9192505 11.3357391-3.3108521 17.0395889 1.6352997-3.1517792 6.4467316-11.0600128 16.4640198-17.8007507-.166214.3433533-5.6908722 11.2973251-16.73703 18.929184-.4063416 1.6280518-.8206787 3.249176-1.2651062 4.8721313-.2373199.8692703-.4826355 1.7313919-.7275085 2.6009827-.6322937 2.2095795-1.2951965 4.4135361-1.9877472 6.6270065.52742-.7070541 1.2722473-1.6701431 2.240097-2.7988968 4.3356171-5.0444107 13.1427612-13.5257339 26.8522339-18.7951126 0 0-10.2987366 13.9274139-26.6732635 21.5100403-.9011841.4220276-1.8266144.8228455-2.7683716 1.2022324-1.1341705 3.5341949-2.3522034 7.0587769-3.6688232 10.5747986-.0036774.0606995-.0011902.0982513-.0011902.0982513-.0154726-.0064854-.0234834-.0135197-.0314943-.020554z" fill="#37b1ff"/><path d="m188.5072021 171.3170319c1.4396515 1.6792297 4.1408234 1.0561523 6.2482605 1.7350769 3.5017395 1.1222687 4.6268158 5.9673462 2.9231262 9.2247314-1.7099609 3.2518768-5.2937317 5.0816345-8.823822 6.0841064-3.5357056 1.0087585-7.2562561 1.4042664-10.644043 2.8302917-.6321716.2642517-1.2930145.6385498-1.7722931 1.1211853-.0623322.0582123-.1187134.1159973-.1685944.1794128-.3292847.3885803-.539978.8414612-.5355377 1.3643341.0200195 2.0373077 2.8034363 2.3890991 4.781662 2.9322205.0307312.0100555.0614624.0200195.0921936.0299683.0491333.0148315.1041107.0292206.1536713.0501099 1.0617676.3269043 1.97789.9038849 2.7429504 1.6533661.0776978.0850525.1551666.1641541.2328644.2492065 1.2040863 1.2977905 1.974762 3.0450897 2.2587128 4.8905334.028244.1545258.0505371.309494.0667725.4647675l.0011902.0179749c.187088 1.6533661-.0133209 3.3563995-.62883 4.8763428-.2479095.6176758-.5457001 1.2086182-.8877563 1.766449-.0811615.1376495-.1682739.2756195-.2559357.4077454-1.152771 1.7597504-2.7150269 3.2398682-4.4917603 4.4755402-1.6210175 1.1351471-3.417984 2.0654449-5.2319336 2.8284454-1.4921417.6275177-3.0080872 1.1664124-4.540802 1.6343231-.0531311.0154724-.1117706.0374451-.1653442.0469666-.4478912.1377563-.8963165.2695465-1.3455048.3893433-.1356964.0390625-.2773438.0784454-.4195404.1118927-1.1525574.3043976-2.3131256.579361-3.4824677.8127747-.088623.0239105-.1775818.0417786-.2666321.0597382-.2671814.0536652-.5400848.1077728-.8072662.1614532l-.0359344.0023804c-.1065826.0249939-.2195587.0444794-.3264618.0635223-.1960907.0370026-.3920593.0740051-.5885773.1049652-1.0638275.1904449-2.1288452.3628235-3.2015533.511734-.3037567.0440369-.6074982.0880737-.9177399.1266022-.5005951.069046-1.0071259.1385193-1.5145416.1960754-.2382812.0337677-.4769897.0614777-.7161407.0832214-.0714264.0107117-.1429443.0215302-.2087402.0258636-.0715332.0107117-.1430511.0214233-.208847.0257568-1.4737396.175293-2.9552765.3270111-4.4250031.4720154-.9320374.0915527-1.8625488.207016-2.7986908.3288574l-.0060577.0003204c-.0834351.0115814-.1668549.023056-.2502899.0345306-.5840302.0806122-1.1676025.1671753-1.7508698.2598114-.0898132.0058441-.1729279.0233765-.2622986.0352783-.0654755.0103912-.1248779.0202332-.1903534.0306244-2.3513336.3654327-4.7111053.7855072-7.0663452 1.1813507-.0950165.01828-.1904449.0306244-.2854614.0489044-3.4914551.5848846-6.9749146 1.1091766-10.395813 1.3045044-2.2469101.124115-3.6713028-.2270355-4.4985809-.9181824-.1333237-.1055145-.249321-.2242126-.3477936-.3499603-1.9227142-2.3449554 1.0741119-7.4255066 2.9551544-11.4583435.3850174-.8191681.7192841-1.5869293.9616776-2.2884674.3588333-1.0339661.6933212-2.0722504 1.0034561-3.115097.3504944-1.1595917.6763153-2.3296967.9657898-3.5034637 1.2162933-4.8128357 1.9800568-9.7402649 2.2732086-14.6907501.0435028-.7065125.0753174-1.4121552.1005249-2.1234436.1367798-4.1283875-.0487976-8.3137054.5426788-12.3878784.1464233-.9718475.3291931-1.9400177.5729828-2.8942413.6684265-2.6298676 1.9046478-5.2251129 3.644577-7.2942352.7806396-.9294281 1.6646271-1.7514038 2.6486053-2.4236145.9609222-.6586914 2.0154419-1.1732483 3.1605377-1.501236.9736938-.2807007 2.0023499-.3665161 3.0178223-.2891388 2.1820831.1689148 4.3311768 1.1156616 5.8587952 2.5785828.4427032.421814.8339996.8831177 1.1617737 1.3847809.6697235 1.0382996 1.0616608 2.2392426 1.0510559 3.5388641-.0015106.4330597-.0373383.8925323-.0669861 1.3575134-.1185913 1.7577972-.2377319 3.5997772 1.2134857 4.3581238.0557404.026413.1116791.0527039.1670837.0731506 1.3175964.5566559 2.7106018-.4793701 3.5550842-1.8099518.222702-.3633728.4136963-.7488251.5449524-1.1303711.1259613-.3691101.2397003-.7434235.3288727-1.1221619.3907471-1.5531616.5010071-3.1661682.5445099-4.7866516.0236969-1.192276.0110474-2.3881226.0291138-3.5740204.0065918-.2650146.013092-.5301208.0252075-.8015289.0827789-2.1222534.3669434-4.2877808 1.2038574-6.1891785.3243103-.73703.7355194-1.4316406 1.246933-2.0667419 1.2733307-1.5752411 3.3795624-2.555954 5.3426361-2.5169983 1.138382.0271606 2.227005.3944244 3.0853424 1.1918335.1731415.1629791.3286285.3330841.4850006.5153198.625351.7284698 1.1440277 1.5723114 1.9750824 2.0467072 1.7375641.9980469 4.009903-.1078796 5.2158203-1.7028198 1.1995239-1.6005554 1.7291107-3.601944 2.7207642-5.3451233 3.4756622-6.1163483 13.212677-7.287323 18.0422821-2.1693268 4.8355713 5.1176605 3.0966034 14.7759094-3.2167053 17.8921967-1.957016.9648132-4.1977539 1.3650818-5.9658356 2.6423187-1.7740173 1.2775421-2.8525695 3.9826202-1.4323883 5.638916z" fill="#9bd8ff"/><path d="m167.2566528 179.4649658c-1.0631866 1.2969055-2.1270142 2.5817108-3.2028656 3.8673859 5.7349091-2.4045868 11.6955414-4.2106476 17.8060608-5.3890686.3205261-.0633087.3895569.4372864.0690308.5005951-6.3774567 1.2321014-12.5954285 3.1513367-18.5595245 5.7274323-.0059509.0003204-.0175323.0071411-.0296478.0079041-.9923096 1.1839447-1.9914246 2.356308-3.0026703 3.529541-10.5553131 12.2960205-21.7545929 24.0390625-33.5221024 35.1882477 7.3629532-4.98349 15.0987015-9.2398987 23.140358-12.8669434.1281281-.0625458.2567902-.1191406.3853455-.1757355 3.1835938-1.4244995 6.4212952-2.756485 9.7017365-3.9890137.0702362-.0286713.1408997-.0513916.2115631-.0740204.410553-.1593933.8273773-.3131561 1.2441101-.4669342 1.0217285-.3739777 2.0438995-.7421112 3.0732117-1.0924988.0997772-.0366821.1995392-.0733643.2998505-.1039886 1.8226166-.6313171 3.6591949-1.2334137 5.5097198-1.8063812.3065643-.0924225.5054626.3695374.193161.468338-1.9682617.6107483-3.916626 1.2503815-5.8566437 1.9255219-.1002045.0306244-.2060394.067627-.3058014.1043091-.9642792.3341675-1.9217377.6799011-2.8787689 1.0315857-.3816681.1394806-.7633209.2788696-1.1386108.4238739-.070755.0227203-.141098.0513916-.2116547.0741272-3.4560699 1.3041687-6.8631287 2.7134094-10.2153168 4.2272949-.1168671.0497742-.2335205.1056061-.3500671.1614532-8.6994781 3.9590302-17.042511 8.6703644-24.9432755 14.2545319-.0463104.0271606-.0934906.0423126-.1358032.0390625-.2153397.2006378-.4305725.4012604-.6458054.6018829-.4474564.4202881-.8948059.8406982-1.3489761 1.249527-.2999573.2843781-.6003571.5626984-.9063797.8475037-.6462402.5958252-1.298439 1.1920624-1.9566879 1.7887421-.2380676.220108-.5531769-.1800537-.3090515-.400589.7205811-.6549072 1.4410553-1.3097992 2.1549301-1.9761658.3007202-.2724762.6070709-.551239.9071426-.8356171.3746262-.3374023.7428741-.6803284 1.1112289-1.0233612 3.7961807-3.5336609 7.5402069-7.1300812 11.2140045-10.7879639 2.8105774-2.7951202 5.582428-5.629837 8.322464-8.4924774 1.2401123-5.2715454 2.2061157-10.5971985 2.887207-15.9581146.2272339-1.7529297.423645-3.5159149.5843353-5.276413.2209778-2.3960419.3867493-4.8063507.4987488-7.2131958.0187225-.4462738.0378723-.8864746.056488-1.3327332.0141754-.3316803.5175781-.268692.5029755.0570221-.0114746.3736572-.0289001.7476349-.0464325 1.1216125-.0986938 2.3338165-.2573242 4.6715088-.4710388 6.9948273-.1614532 1.8388367-.3652191 3.6744385-.5997162 5.4999695-.6453705 5.1722107-1.5637665 10.3082733-2.7379761 15.394989 5.6694336-5.954361 11.1843567-12.0608673 16.5341339-18.3007965 1.8262939-2.1289673 3.6271515-4.2742615 5.3974915-6.4295197 1.4043884-1.6861572 2.7783508-3.3764343 4.1454926-5.0781708l-.005188-.0778046c.016983-.2897949.0403595-.5739594.0573578-.8637543.2261505-3.412674.4459381-6.8308716.677948-10.2438812.0150299-.2295074.029541-.4649811.0444641-.6945038.0205688-.3260345.5235291-.2690125.5028687.0571442-.0019531.0601654-.0103912.1149139-.012558.1751862-.2361145 3.5335541-.4662781 7.0666809-.6961212 10.6058502-.009964.1208801-.0137482.2474823-.0238037.3683624.1166534-.1459808.2277832-.2855682.3444366-.4315491 4.5378723-5.6933594 8.9609222-11.4873505 13.2332306-17.3796997.1929474-.2653351.5974426.0327911.4044952.2980194-4.1623688 5.734787-8.4503784 11.3875732-12.8656311 16.9345093-.0391846.044693-.0719757.0950165-.111145.1395874-1.3608704 1.707367-2.7403565 3.4040223-4.1263276 5.0949555z" fill="#37b1ff"/><path d="m35.7262001 152.8188629c.0247688.0728149.085907.1332092.200428.1941223.1302872.0665588.2779541.2068024.4409447.4057922 2.6286507 3.2274323 9.1652451 22.4828644 11.1209068 27.3570557 2.0706444 5.1708069 11.4371109 4.715332 11.4371109 4.715332l-11.1621361 2.120636s7.1120872 11.4868011 15.529026 16.7054291c3.7896881 2.3450623 8.0838623 2.3964691 11.6557236 1.7521667 4.3795547-.8035736 7.6875916-2.6445923 7.6875916-2.6445923-.5214767.7754517-4.0701752 3.1575165-7.3448868 5.2526093-3.0223541 1.9327698-5.8032913 3.6209869-5.8032913 3.6209869s2.8821106 1.1643677 6.6291656 2.6636353c5.3760757 2.1517944 12.5392761 5.00383 15.5847931 6.1391907 1.6145172.6012268 4.0398712-.0900269 6.6122894-1.3403168.5927811-.2907562 1.1974716-.6058807 1.8058395-.951828 4.8851166-2.7401428 9.7489166-6.8001404 10.1730042-7.1599579l-9.0640488 9.1198883-1.5439682 1.5559845c.0477219.0165558.1039886.0395966.1518173.0561523.9341965.3408813 1.9210892.4468079 2.9453125.3731232 1.5222168-.1012878 3.1279755-.6086884 4.729187-1.3816528 4.1551208-1.990448 8.3588333-5.7508087 11.4109497-8.9037781 1.5400696-1.5859528 2.7874298-3.0269012 3.5806198-3.9902039.5556717-.6887817.8847427-1.1349335.9383087-1.2483368 5.8807831-12.5176392 3.8947601-22.9448242.4937668-29.7349091-2.7344055-5.4788818-6.3748703-8.5961304-7.5469131-8.5485229-.3252869.0123291-.4591446.2656555-.3212814.7948151.6324997 2.4407196-.3088379 5.5747528-1.3683395 8.0401459-.0791016.2079773-.1676178.4021149-.256134.5961456-.6316376 1.3829498-1.253746 2.490921-1.5906067 3.0521088-.1479263.2627411-.2433701.4044952-.2433701.4044952s-.2932587-1.5957947-.7790222-3.9037476l-.0074615.0009766c-.4383698-2.063385-1.0355911-4.6986694-1.7230606-7.2690277-.6942902-2.6226196-1.4799042-5.187561-2.2917099-7.026947-.2163162-.4885864-.5092468-.982132-.8787918-1.4808807-.1867752-.2643738-.4043884-.5323029-.6370392-.798172-3.6636276-4.277298-11.5563889-8.5157471-13.2569351-8.3834991-.3244247.0198975-.4213791.207428-.2198868.5839081.4533005.8450165.4632568 2.8886108.268692 5.2251129-.0182877.2076569-.0366898.4153137-.0541077.6304474-.0720673.7240448-.16362 1.4734192-.2636032 2.2164001-.0819168.6492615-.178772 1.3005981-.2721558 1.9209747-.0774765.4511414-.1495514.886261-.2234573 1.3065491-.2353592 1.3916016-.4755936 2.5710144-.651329 3.3163757-.2042999.8174286-.3193359 1.0985565-.2818909.5159454.0542145-.7445984-.5912704-2.5905914-1.5666885-4.8645477-.2419662-.5687714-.5113068-1.171936-.7890854-1.781601-.5137863-1.1335297-1.0803909-2.3210449-1.6598587-3.4915771-.106163-.2292938-.21978-.4576263-.3334045-.6859436-2.1852341-4.3651733-4.4449158-8.3708496-4.8550339-8.4841461-.5684357-.161026-7.6159592-2.5948181-12.0398788-3.0549316-1.1553726-.1142731-2.1254959-.0931702-2.7654648.1277924-.5158463.1818085-.808342.5014648-.7958984 1.0015106.0331192 1.2348022-.3701935 3.2566376-.8991318 5.3635254-.7179871 2.808197-1.6688423 5.7534027-2.1146736 7.1043243-.1567993.4842529-.256897.7635498-.256897.7635498s-.0525894-2.2509155-.8278198-4.7944489c-.8716469-2.8730164-2.6570358-6.1047668-6.2958794-6.8961182-5.2424355-1.1354675-15.5316467 1.0908813-19.1381645 2.7430573-.0140457.0095215-.0354843.0199127-.049366.0293274-.8744393.4037323-1.3358346.7685242-1.2228051 1.0500946z" fill="#059eff"/><path d="m36.2152634 152.8382263.0039291.0298615s10.0052528 3.595993 23.2742958 9.5833588c.0572433.0304108.1134033.0534515.1781158.0830078.396595.1835175.8006592.3660736 1.2122955.5476532 3.6153603 1.6533661 7.457859 3.4745789 11.3808632 5.4449005.2363358.1209869.4801407.2408752.7240448.3608856 3.3218918 1.6768494 6.7033005 3.4597473 10.0583038 5.3298645.3273392.1773682.6481857.363266.9766083.5482025.6979675.3947601 1.403511.7885437 2.1035309 1.198349 1.8258591 1.0523529 3.648262 2.1355591 5.4341888 3.2312012.521904.3266907 1.0352631.6468964 1.5486221.9671936.4309006.2702026.8542252.5415039 1.2786331.8201447 1.7345276 1.1100311 3.4337769 2.2398834 5.0901794 3.3904877.1764908.128891.3521194.2501984.5267715.3640289 2.489418 1.7634277 4.8772202 3.5628815 7.1165619 5.3896027.2630615.2086334.5111923.4193268.7603989.6373749 3.6286774 3.0276642 6.829689 6.1570435 9.4160614 9.3519897 1.5046921 1.8471832 2.8000946 3.7218475 3.8459625 5.6064606.0085449.0065002.0085449.0065002.0095215.0139618.5066452.9063873.9622192 1.8272705 1.3484268 2.7418823.0208893.0428467.0351715.0942383.0560532.1371002.7033844-.8374481 1.1233521-1.4019928 1.1833038-1.5238495 5.838356-12.4360352 3.9123993-22.8103027.5564194-29.6062317-3.0597992-6.219162-7.3227005-9.4446259-7.910614-8.5387878-.0963058.1342926-.1062622.3484497-.0285645.6499176.6382294 2.4855194-.3390274 5.6927032-1.4189835 8.1760559-.1520386.3468323-.2996368.6702728-.4481049.9862518-.8276062 1.7431793-1.5903931 2.9380646-1.5903931 2.9380646s-.0202332-.0960999-.0503159-.2670746c-.1006393-.5340271-.3461761-1.8245544-.7055435-3.5180817-.4375-2.0558014-1.0355911-4.6986694-1.7185135-7.2923889-.7067337-2.6589813-1.5046844-5.2604065-2.327858-7.1286774-.1746521-.402771-.4109879-.812561-.7005615-1.2231293-.1708679-.258728-.3725739-.5211487-.5901871-.7889709-3.8694458-4.7444458-13.2298813-9.5653839-13.7747269-8.5055542-.0555115.0985718-.0359268.2480164.0737991.4464722.4635773.8664551.4619598 2.9951935.2537537 5.401947-.0182877.2076569-.0366821.4153137-.0539932.6304321-.0795364.7250214-.16362 1.4734192-.2636032 2.2164001-.0894928.6502533-.1873169 1.2941132-.2804871 1.9144897-.1270447.7692719-.2505112 1.5077209-.3761444 2.1702881-.4378281 2.3381348-.8195953 3.7718353-.7500153 2.797287.0087585-.1075592-.0005417-.2355804-.0191574-.3775482-.1168671-.8892975-.7030487-2.5150604-1.5266495-4.4441528-.2429352-.5762329-.5113068-1.171936-.790062-1.7890778-.4920349-1.0831909-1.0283356-2.2137909-1.5784836-3.3349762-.1136246-.2283325-.2272415-.456665-.3409729-.6849823-2.2108841-4.445343-4.5385208-8.5637817-4.9571915-8.6835785-.5918121-.165451-8.2126312-2.7977142-12.5841827-3.0897675-1.1046219-.0753174-1.9997559-.0033569-2.5137634.3075256-.3326416.1880798-.5083771.4696503-.5031815.8566132.0320282 1.2273407-.3712769 3.249176-.9086533 5.3495636-.9584351 3.812851-2.3622704 7.8818359-2.3622704 7.8818359s-.0069237-.2271423-.0355988-.6186523c-.0775909-.8792267-.2855721-2.5774994-.8588791-4.3950195-.8946953-2.8167572-2.6773796-5.9120636-6.2290039-6.6768951-5.3914413-1.1691284-16.1301422 1.2227936-19.4308777 2.8879547-.0140457.0095215-.0354843.0199127-.049366.0293274-.3420677.1742249-.6008911.3450928-.7560654.4946289z" fill="#cdecff" opacity=".49"/><path d="m122.7983246 207.976532c-.020668.0218506-.0465317.0390625-.0746689.0506439-.1272583.0536652-.2870865-.0119019-.3575287-.1455536-3.9748383-7.6134644-11.3943939-15.368042-22.0515366-23.0481567l-.199646-.1440277-.2024689.0902405c-1.1097107.4967957-2.2409592 1.0091858-3.3888702 1.530014-5.626915 2.5503387-11.4325867 5.1824799-17.0472717 7.0244598-.1325607.0436096-.2888184-.0335388-.3493118-.1707611-.0420914-.0966339-.0267258-.2031097.0390701-.2722473.0248871-.0260925.0554047-.0450287.0903549-.0562744 5.5994263-1.836792 11.3964462-4.4649353 17.0021439-7.0066223.930954-.4215851 1.84729-.836792 2.7543182-1.2441101l.5851059-.2628479-.5821838-.4096832c-7.2134018-5.0716858-15.8474197-10.12117-25.6636429-15.0091095l-.142189-.0711975-.1423035.0377655c-2.7754135.7311859-5.9511108 1.7333374-9.3136902 2.7935944-1.3761292.4346924-2.7743378.8756561-4.1707039 1.3059082-.0642776.0200195-.1356964.0122223-.20084-.0206757-.0656853-.0336456-.1171951-.0887299-.1452217-.1558228-.0404701-.0961914-.024456-.1986694.0411224-.2672882.0256462-.0269318.057785-.0468445.0956573-.0588531 1.3942032-.4298248 2.7915421-.8700256 4.1669159-1.3037415 2.7189369-.8581238 5.5302773-1.7450256 7.9929695-2.4337921l.9398193-.2628479-.9510727-.4648895c-18.8804932-9.2259216-35.4827232-14.6883545-35.6484299-14.7420197-.0692329-.0228424-.1286621-.0697021-.1668739-.132019-.0388565-.0625458-.0524712-.1337585-.0377884-.2001953.0086594-.0416718.0281677-.0778046.0559692-.1068115.0629463-.0660095.1603813-.0875397.2560081-.0568085.1740036.0565948 17.7311592 5.8117371 37.1107254 15.4061279 2.1054764 1.0424042 4.2468872 2.1397858 6.366539 3.2619476l.8482742.4497223-.3293991-.8861389c-1.6352997-4.3979492-5.482666-15.5259247-5.811409-16.5690918-.0279236-.08992-.0094147-.180069.0497742-.2420654.0319214-.0334473.0723953-.055191.1203308-.0641785.066658-.0138397.1378632.0010834.2003021.0399323.0629807.0393982.1090775.0990143.1310425.167511.5338135 1.6968689 5.3507538 15.5167236 6.2765121 17.7786865l.0620041.1521454.1472778.0798492c8.0142822 4.3270721 15.0715408 8.7476349 20.9759064 13.1389923l.6315231.4693146-.026619-.7389832c-.2741013-7.7269745-1.9571228-15.1925201-3.5671005-21.4755249-.0216446-.08461-.0015106-.167511.054863-.2264862.0350647-.0368958.08181-.060379.135376-.0682831.1387253-.0184937.2831879.082901.3201981.226059 1.6881027 6.5907593 3.4380035 14.4031219 3.6205521 22.3745422l-.037117.2425079.1986771.1987915c9.1645813 7.0123444 15.6813126 14.1481628 19.3680954 21.2086639.0518343.1002045.0402529.216858-.0295408.2896882z" fill="#69c5ff"/><path d="m123.4565811 102.4298706h61.8428879c1.2090607 0 2.2033081.9911118 2.1644592 2.1995163-1.2379456 38.4948654-34.8405609 69.4103622-74.2350006 66.1736374-33.231987-2.7305145-59.978405-29.4769287-62.7089157-62.7090225-3.298233-40.1419678 28.8643417-74.2702789 68.3730545-74.2702789 15.0843048 0 29.7352295 4.9748268 41.6843109 14.1155968.9609222.7350845 1.0996399 2.1340485.3340454 3.0709457l-39.130722 47.8859406c-1.1548386 1.4132499-.1493302 3.5336646 1.6758804 3.5336646z" fill="#f29f05"/><path d="m134.2379456 93.0738678 39.2093964-47.8095436c.7835693-.9554024 2.1957245-1.0497627 3.1247253-.2350349 7.0489197 6.1816063 12.7629547 13.7488632 16.7796631 22.2378769 4.0167236 8.4891129 6.2445831 17.7058487 6.5543976 27.0762405.040802 1.2349167-.927597 2.2671509-2.163269 2.2671509h-61.831421c-1.8270416 0-2.8320007-2.1239853-1.6734924-3.5366898z" fill="#f29f05"/><path d="m176.6796417 102.4298706c0 31.6952667-26.0899048 57.7851562-57.7851715 57.7851562-31.7060928 0-57.7851639-26.0898895-57.7851639-57.7851562s26.079071-57.7851677 57.7851639-57.7851677c13.3858185 0 26.3604279 4.6531143 36.6946564 13.147747l-15.8746796 19.305008-12.6607971 15.4093781-5.2494659 6.384285c-1.1611176 1.4121628-.1565857 3.5387497 1.6717606 3.5387497h53.2036971z" fill="#fdd7a4"/><path d="m189.1240082 96.6080704h-53.2028198c-1.8284607 0-2.8329926-2.1269073-1.6714478-3.5390778l33.7945862-41.0875206c6.5901031 5.4214172 11.9033051 12.2387657 15.5500488 19.9542809 3.6359253 7.7155075 5.5296326 16.1452179 5.5296326 24.6723175z" fill="#fdd7a4"/><circle cx="96.527069" cy="74.294769" fill="#d91a3d" r="10.006031"/><ellipse cx="126.014816" cy="60.080513" fill="#d91a3d" rx="10.006115" ry="10.006029" transform="matrix(.1601818 -.9870875 .9870875 .1601818 46.524807 174.84436)"/><ellipse cx="79.410835" cy="102.42984" fill="#d91a3d" rx="10.006055" ry="10.006116" transform="matrix(.229754 -.9732487 .9732487 .229754 -38.523834 156.182678)"/><ellipse cx="89.416924" cy="130.9552" fill="#d91a3d" rx="10.006116" ry="10.006055" transform="matrix(.2297519 -.9732493 .9732493 .2297519 -58.578838 187.89296)"/><ellipse cx="153.875839" cy="114.994545" fill="#d91a3d" rx="10.006043" ry="10.006071" transform="matrix(.7357221 -.6772835 .6772835 .7357221 -37.21793 134.608078)"/><ellipse cx="139.714417" cy="137.989578" fill="#d91a3d" rx="10.006055" ry="10.006115" transform="matrix(.2322973 -.9726448 .9726448 .2322973 -26.955715 241.827469)"/><ellipse cx="121.646385" cy="118.14032" fill="#d91a3d" rx="10.006126" ry="10.006099" transform="matrix(.7071068 -.7071068 .7071068 .7071068 -47.908421 120.619476)"/><ellipse cx="112.762398" cy="143.299591" fill="#d91a3d" rx="10.006126" ry="10.006099" transform="matrix(.7071068 -.7071068 .7071068 .7071068 -68.300766 121.706535)"/><ellipse cx="166.672012" cy="74.298317" fill="#d91a3d" rx="10.006045" ry="10.006072" transform="matrix(.7071068 -.7071068 .7071068 .7071068 -3.719741 139.616379)"/><path d="m163.8781586 94.9848862c0 .5518799-.0432739 1.0929413-.1406708 1.6231842h-19.7270355c-.0973816-.5302429-.1406708-1.0713043-.1406708-1.6231842 0-5.5296249 4.4799805-10.0095978 10.0095978-10.0095978 5.5188141 0 9.9987793 4.4799728 9.9987793 10.0095978z" fill="#d91a3d"/><ellipse cx="107.615242" cy="98.128204" fill="#d91a3d" rx="10.006045" ry="10.006072" transform="matrix(.7071068 -.7071068 .7071068 .7071068 -37.86734 104.836556)"/><path d="m139.714447 77.0974579-12.6607971 15.4093781c-2.597084-1.8071365-4.2851944-4.8046112-4.2851944-8.2024612 0-5.5296326 4.4799728-10.0096054 10.0096054-10.0096054 2.6944733-.0000001 5.1400604 1.0712966 6.9363861 2.8026885z" fill="#d91a3d"/><path d="m133.8952332 150.6076508s-1.1354675-29.4707565-1.6759796-34.7924042c-.5404053-5.3217545-7.7071762-5.8473358-8.5398712 2.90625-.8326874 8.7533722-1.4199524 26.316925-1.4199524 26.316925s-3.770752-4.8575287-9.4320755 2.1511383c-4.9213715-6.3719482-9.7590942.5683289-9.6864853 2.0258331-4.7841568-4.7245331-9.326889-1.2727814-9.2226791 5.256073.1044235 6.5288544-.3509369 35.0587158 7.6582642 48.6382294l.598732-.0100555-1.3196411 27.0202942h32.4635773l-.9658966-28.5054016c2.4099884-3.6452332 10.6013031-16.7351837 11.4519501-27.4865875.9985807-12.6215058-9.9099428-23.5202942-9.9099428-23.5202942z" fill="#fdab95"/><g fill="none" stroke="#f9a63a" stroke-miterlimit="10"><path d="m43.719067 218.384033h4.365486"/><path d="m56.830608 218.384033h4.365376"/><path d="m46.278496 212.205032 3.086853 3.086853"/><path d="m55.549702 221.476196 3.086853 3.086853"/><path d="m52.457546 209.645599v4.365494"/><path d="m52.457546 222.756989v4.365493"/><path d="m58.636555 212.205032-3.086853 3.086853"/><path d="m49.365349 221.476196-3.086853 3.086853"/><path d="m75.6751938 27.4069233c2.0273514 0 3.6708755 1.6434135 3.6708755 3.6707649s-1.6435242 3.6708736-3.6708755 3.6708736-3.6707687-1.6435242-3.6707687-3.6708736 1.6434173-3.6707649 3.6707687-3.6707649z"/><path d="m40.4678612 136.912796c1.1634941 0 2.1066704.9431763 2.1066704 2.1066742s-.9431763 2.1066742-2.1066704 2.1066742c-1.1634979 0-2.106781-.9431763-2.106781-2.1066742s.9432831-2.1066742 2.106781-2.1066742z"/><path d="m191.5902557 50.9046707c1.1634979 0 2.106781.9431763 2.106781 2.1066704s-.9432831 2.1066666-2.106781 2.1066666c-1.1634827 0-2.1066589-.9431725-2.1066589-2.1066666s.9431763-2.1066704 2.1066589-2.1066704z"/><circle cx="189.124008" cy="227.122482" r="2.106669"/><path d="m64.81665 234.121521h6.756752"/><path d="m68.195023 230.743134v6.756866"/><path d="m194.559372 201.483292 4.777893 4.777771"/><path d="m199.337265 201.483292-4.777893 4.777771"/><path d="m32.743034 116.781273 4.777775 4.777771"/><path d="m37.520809 116.781273-4.777775 4.777771"/><path d="m113.675781 11.091574h4.292107"/><path d="m126.56691 11.091574h4.292007"/><path d="m116.192184 5.016413 3.034974 3.034974"/><path d="m125.307533 14.131761 3.034966 3.034974"/><path d="m122.267342 2.5v4.292116"/><path d="m122.267342 15.391031v4.292116"/><path d="m128.342499 5.016413-3.034966 3.034974"/><path d="m119.227158 14.131761-3.034974 3.034974"/><path d="m153.904205 27.28046 4.697586 4.697476"/><path d="m158.601791 27.28046-4.697586 4.697476"/></g></svg>