<svg enable-background="new 0 0 240 240" viewBox="0 0 240 240" xmlns="http://www.w3.org/2000/svg"><path d="m95.686142 182.3477631s1.1254272-8.0901184 5.1651688-18.1414337v-.0071411c.6437073-1.597641 1.3598328-3.2375488 2.155304-4.9054565 1.4660416-3.0780487 3.2063599-6.2465973 5.2768631-9.3396301 1.953743-2.9431305 4.209053-5.8181763 6.7860641-8.5026245l-.0742798-.4541473c-.0871964-.5766602-.1888504-1.1390686-.2615738-1.7155304l-.196907-1.7291565-.242569-2.147049-.0786133-.6988678-.4660187-4.0636139c-.3130264-2.2990112-.4025955-4.6170197-.5712967-6.9287338l-.4631271-6.9419708 1.3669739.0294495.4208679 6.8551788c.1546555 2.289917.2299728 4.5862503.5215988 6.8562241l.3525925 3.2635956.0784073.7132263.3138504 2.8674164.1826477 1.7074585c.0728302.5693359.1674652 1.1316376.2547607 1.7010651l.221283 1.4560242c20.1916885 6.5262451 31.6140976 26.5200043 31.6140976 26.5200043-18.8982697-5.7059937-28.5054626-19.9878693-31.3719482-24.9846497l.0603333.3964996c.8414459 5.917038 2.0004501 11.7584686 3.347168 17.5228271 18.9493103 3.0298157 30.822464 19.9991302 30.822464 19.9991302-18.4133606-2.6929321-28.2092972-15.5304565-30.6162643-19.1189423.6600342 2.7848663 1.3633652 5.5631104 2.1030426 8.312851.6289291 2.3456116 1.3012543 4.6772614 2.0098419 6.9806061 15.9174423.6360626 26.7287827 13.3984833 26.7287827 13.3984833-13.8304138-.0086823-22.5481262-7.5165558-26.0683365-11.3044434 1.1338043 3.5457306 2.3546906 7.0348358 3.6552353 10.4671326 13.0940399.2235565 22.0372772 10.7850189 22.0372772 10.7850189-12.3481598-.0066223-19.6201935-7.4554138-21.7296295-9.9684753.6364746 1.6692505 1.2944489 3.3388062 1.9598541 4.9867706 1.1141663 2.7107849 2.2863007 5.3933716 3.502243 8.0332947 10.086731.1544495 16.9771576 8.2825928 16.9771576 8.2825928-9.5057526-.0041351-15.0840607-5.7359467-16.6962738-7.660675 1.44104 3.0885925 2.9476776 6.105896 4.5489349 9.023407 10.155258 9.6322018 13.4119261 23.6065213 13.4119261 23.6065213-8.4763947-7.8650208-11.8513489-16.9834747-13.0558167-21.3070984-2.6126556-4.5118561-4.9852142-9.2728882-7.1907349-14.1759796.5981598 3.1943817 1.5629425 11.6169434-1.8919678 22.1424408 0 0-2.2942657-11.2077332 1.4638672-23.1185913-.6177673-1.4028168-1.2354584-2.8128662-1.8243103-4.2297211-1.1215057-2.6964417-2.1923981-5.4355316-3.2195816-8.2028351.0951462 4.4192963-.3986664 17.8701477-8.9014053 31.9738159 0 0-.4312057-17.6634369 8.5238113-32.9782867-1.1736679-3.1934357-2.2749252-6.4293518-3.2964401-9.7147369-.0355377-.0435944-.0568237-.0726318-.0568237-.0726318l.035965.0004272c-.2364807-.7365875-.4513626-1.4801941-.680603-2.2310333-.0043335 5.6127014-1.0254288 19.2520905-9.6235199 33.5202332 0 0-.4607544-18.9087219 9.0758896-35.4043579-.2288284-.7868958-.4576569-1.5665588-.67202-2.3604889-.9201584-3.3346558-1.7825699-6.6974335-2.5871353-10.0883942-.5752106 6.484314-3.1253586 21.7402649-14.4242249 36.2160339 0 0 1.3030243-21.5875702 13.9025269-38.5028534-1.0839996-4.7973022-2.0235901-9.6432495-2.7539749-14.5444794l-.2356491-1.4633484c-.7425766 5.3455505-3.7744446 20.5673065-15.4224854 34.7298584-1.2908325 1.5689392-2.6897201 3.1293946-4.2032699 4.6597901z" fill="#69c5ff"/><path d="m164.4978027 71.113327c-.2816162.7612686-.5778961 1.5163498-.8670654 2.2709045 1.4621124-1.8847427 3.9192963-4.7580414 7.4170837-7.9234924.9798737-.8865814 2.0445557-1.8004417 3.1955261-2.7199821 2.2945557-1.8386726 4.932724-3.714325 7.9015656-5.4964867 3.2121582-1.9206924 6.8208923-3.7305412 10.843689-5.2792244 0 0-2.3372192 3.1610069-6.5624084 7.3262672-3.3993378 3.3464432-8.017395 7.350029-13.6263733 10.8709564-.4567261.2897797-.9140778.5722275-1.3862915.8485718-2.3381653 1.3944473-4.8337708 2.6981888-7.4780273 3.8243484-.3500061.1601257-.7010498.3057861-1.0590973.451973-.3156128.7924728-.6312103 1.5848389-.9542694 2.370491-1.3815155 3.3287811-2.8136902 6.6537399-4.326828 9.9551392 1.6230621-1.7438354 4.1347809-4.224144 7.5202789-6.9062195 1.9324646-1.5335999 4.1421356-3.1285706 6.6278076-4.6914062.3252106-.2088852.6580658-.4110641.991333-.606102 5.4072266-3.2985153 12.0539398-6.3903046 19.8915863-8.3707123 0 0-2.2600708 2.5790787-6.284729 6.0676727-.2116699.1798553-.4228363.3668442-.6413269.5543442-3.4344635 2.9231949-8.0152283 6.398056-13.4841309 9.5275497-.389267.2203598-.7785187.440712-1.1821442.6619949-1.3708954.7537384-2.7939606 1.4821548-4.2630005 2.1702881-2.7281494 1.2758484-5.6161041 2.4252548-8.6484985 3.3534698-.2049561.0639496-.4098206.1278992-.6151886.1847153-.3184052.0930786-.6296692.1857452-.9483643.2715988-2.1746368 4.6430588-4.5042267 9.2313614-7.0343323 13.7319565l-.7399902 1.3540573c1.5375366-1.5075684 4.2804565-3.9814758 8.124527-6.7081833.2140656-.1439056.4276886-.2949371.648468-.4465942 3.9579163-2.7486038 9.0203094-5.6998978 15.0835266-8.1257706 3.7168121-1.4853516 7.8071747-2.771637 12.2462006-3.6915894.2064209-.0424652.4127045-.0849228.6194305-.1201477.1278992-.0300674.2561951-.0530014.3845215-.0758286.3058777-.0634308.6121826-.1196289.9257202-.1763458 1.0833893-.1940155 2.1823883-.3674698 3.3049164-.5135422 0 0-3.08992 3.008728-8.3859863 6.7903061-.5990906.428833-1.2264709.8668518-1.8820648 1.3138657-1.9944611 1.3573608-4.2447052 2.7747421-6.7054901 4.1700134-4.7279816 2.6624451-10.2557678 5.2261276-16.309906 7.0240936-.2126007.0573349-.4174652.1212845-.6299744.1785126-2.6398163.7580719-5.3761292 1.3638687-8.1903229 1.7729721l-.2315216.4262466c-.2972107.5243912-.5722198 1.0544586-.8837891 1.5797806l-.9363861 1.5472336-3.7744446 6.1906128c-1.210556 2.0916672-2.624527 4.0525513-3.9628754 6.0661163l-.8213043 1.2151108-2.187851 3.2377625-1.0441284 1.5542679-1.1121063-.9002304 3.3143158-4.8551483.723465-1.0571442c.6829681-1.0185089 1.3882446-2.0241089 2.0787506-3.0359039l-.0005035-.0071259c.6507416-.9586945 1.2860718-1.9308243 1.8760529-2.9360046l3.7660828-6.0963898.9378357-1.52565c.312088-.5180893.5877075-1.0410309.8848267-1.5654221l.7481537-1.3401031c-3.8003845-5.5832596-6.1205597-11.6823425-7.5175934-17.4527969-3.165863-13.1318436-1.5341187-24.5895958-1.5341187-24.5895958 2.9250488 4.1194954 5.0543213 8.3057289 6.5914459 12.3724327 4.7309723 12.4805984 3.8743439 23.7719193 3.2467499 28.2552643l.2066193-.366951c3.0830994-5.4095993 5.8691101-10.9510193 8.4488983-16.5582504-4.0890198-4.3815918-6.8555908-9.3768234-8.7262878-14.2363129-4.3757019-11.3574333-3.8468628-21.9348984-3.8468628-21.9348984 6.2326508 6.4902 9.5345764 13.591774 11.2553711 19.788063 2.0005493 7.1585007 1.8812256 13.1155243 1.7085114 15.5281754 1.2412262-2.7210236 2.4384613-5.4536133 3.5920868-8.1905441.5921631-1.409111 1.1695557-2.8245316 1.7248383-4.245636.3716888-.9258423.7289276-1.8507538 1.0785217-2.7823792-12.690094-10.7013321-13.4196625-28.1184845-13.4196625-28.1184845 11.3713989 8.8557396 13.7465363 20.6046066 14.22258 25.9671021 1.3323517-3.635704 2.5557251-7.2857742 3.6846619-10.9441032-10.630661-8.5583153-11.2344971-22.9694214-11.2344971-22.9694214 10.1550446 7.904583 11.3773804 18.6839104 11.5017548 22.100914.545578-1.7882576 1.0766754-3.5754776 1.572052-5.3604279.0407867-.146904.0810852-.3010368.1217804-.4479408.774704-2.7983971 1.4919739-5.5930786 2.1435394-8.3978806-1.0962982-.8796654-2.0533447-1.8332977-2.8840485-2.8385849-5.4404907-6.5063133-5.7879028-14.8410721-5.7879028-14.8410721 2.2502441 1.7554035 3.9281616 3.6927319 5.1802521 5.6221066 3.0980988 4.771471 3.5903473 9.5055408 3.6550293 11.3616695.7961884-3.4560509 1.4841156-6.9122086 2.0305023-10.330246-2.1980743-14.4214382 4.0597839-28.008461 4.0597839-28.008461 1.945282 11.8998013-1.1032257 21.5544167-2.8803101 25.8828011-.7407227 5.3922443-1.8322754 10.8219929-3.1608124 16.2673397 1.5611877-3.0089417 6.1545715-10.5587654 15.7178497-16.9940071-.1586761.327795-5.4329529 10.7853203-15.9784851 18.0711937-.3879242 1.5543671-.783493 3.1019173-1.2077789 4.6514282-.2265472.8297653-.4607544 1.6528168-.6945343 2.4831009-.6036224 2.1093369-1.2364807 4.2135048-1.8976593 6.326561.5035248-.6749077 1.2144928-1.5943451 2.1385803-2.6719475 4.1391144-4.8157921 12.5471191-12.912735 25.6352692-17.9432983 0 0-9.8320007 13.2962074-25.4645081 20.535183-.8602448.4027977-1.7437286.7855492-2.6428223 1.147644-1.0827484 3.3740311-2.2455902 6.7389679-3.502533 10.0956345-.0035095.0578537-.0011444.0938034-.0011444.0938034-.0147706-.006193-.0224152-.0129069-.0300599-.0196208z" fill="#37b1ff"/><path d="m164.6986389 213.0603027c-1.9795837.7349243-2.3136749 3.3601837-3.6179352 5.0236511-2.1619263 2.7658539-6.8732758 2.1732788-9.2282562-.4287262-2.3479919-2.6057281-2.8031616-6.4202728-2.53508-9.9132996.264267-3.5001678 1.138855-6.9633484.9805908-10.4689941-.0277863-.6534271-.1447296-1.368927-.4186859-1.9577789-.0316315-.0750122-.0647888-.1445312-.1051788-.2102356-.2392578-.4232483-.5753174-.7614899-1.045166-.9302826-1.8314362-.6550751-3.0658569 1.7219238-4.2058563 3.3144073-.0191193.024292-.0382233.0484619-.0572357.0727386-.0295563.0390472-.0606384.0835724-.0955658.1210785-.6436005.8430939-1.4630432 1.473053-2.3870239 1.9107666-.1018677.0415344-.1982422.0847168-.3002167.126358-1.5601349.6497955-3.3796997.7629242-5.1266327.4077454-.1477356-.0257263-.293808-.0570221-.4382324-.093689l-.0164337-.0049591c-1.5428925-.378418-3.002121-1.1205902-4.1601868-2.1739044-.471405-.4260406-.9024048-.888031-1.2889709-1.3786469-.0964966-.1181793-.19133-.2418365-.2806854-.3638458-1.1955872-1.6139832-2.0053101-3.5021362-2.5251541-5.5017548-.4814148-1.8269958-.7210846-3.7437592-.8053894-5.6205597-.0692139-1.5438232-.051239-3.0796967.0359497-4.6071014.0037231-.0526886.0034103-.1125031.0126038-.1636353.024498-.446701.0545502-.891861.095665-1.3338165.009819-.1343994.0213852-.2743835.0383377-.4127045.1080475-1.1329803.2451401-2.2633667.4222107-3.3877716.0079498-.0872955.0212784-.1729431.0346069-.2585754.040184-.2570343.0819244-.5194397.1221085-.7763672l.0097122-.0329437c.0127029-.1037292.0326462-.21138.0508347-.3135376.0317078-.1878204.0633163-.3755341.1004105-.5617981.1808853-1.0157166.378212-2.0266876.5991745-3.0367279.0608521-.2866669.1217041-.5732422.189682-.8638611.1035156-.4711761.2085724-.9478455.3246918-1.4212952.0485535-.2247009.102478-.4476318.1619873-.6690216.0139465-.0675659.0279999-.1351318.0458679-.1955719.0139465-.0674591.0279999-.1351166.0458679-.1954498.3297577-1.3780212.6831818-2.7551117 1.0387573-4.1194916.2259369-.865097.4298706-1.7367096.6299744-2.615448l.0015411-.0055695c.0172577-.0785217.0346222-.1570282.0517578-.2355499.1207733-.5498047.2359619-1.1011505.3457794-1.6541595.0242767-.0823364.0360565-.1626129.0549622-.2464905.0123901-.062088.0231323-.1186981.0354309-.1806793.4493866-2.2268066.8525085-4.4793243 1.2759552-6.7197571.0149689-.0911102.0355377-.1805878.0505066-.2718048.629364-3.3205109 1.3103638-6.6138611 2.2652283-9.74263.6311188-2.0535431 1.416153-3.2133789 2.3085175-3.7261047.1384277-.0845032.2830658-.1492767.4283142-.1959686 2.7353821-.9475403 6.2962952 3.4148254 9.2872467 6.4318237.6066284.6154022 1.1838074 1.1684113 1.7321625 1.6172791.8075714.6629333 1.6271973 1.3055115 2.458725 1.9277344.9230499.6970062 1.8634644 1.3753204 2.8191681 2.0223389 3.909256 2.679184 8.0704956 4.990799 12.407959 6.8885651.6184082.2724152 1.2400055.5338898 1.8688354.7914276 3.6526489 1.4861908 7.462738 2.7024231 10.9167328 4.5778809.8221283.452179 1.628952.9356537 2.4031372 1.4692383 2.1348572 1.4674835 4.0511169 3.4319763 5.3297424 5.6738586.5746002 1.0063171 1.0189362 2.0695648 1.2960052 3.1729889.2726288 1.0782318.3851318 2.1928101.300827 3.326828-.0702515.9648895-.3331604 1.9145966-.7379303 2.7985992-.8720093 1.8986969-2.4299927 3.5110168-4.2449036 4.3960419-.5240784.2572479-1.0665436.4553833-1.6240997.5832825-1.1512604.2569275-2.3563538.2112579-3.5170135-.227478-.3874054-.1444244-.7870941-.3283234-1.1938171-.5083771-1.5352478-.6867981-3.1458282-1.4019928-4.3044128-.3526001-.0420532.0412292-.084198.0826569-.1207733.1255188-.9337921.9963074-.4660187 2.586319.4469147 3.782196.2519684.3194275.5341949.6178894.83255.8614807.2889557.234726.5866852.4602356.8964996.6652069 1.2621155.8630371 2.6704102 1.4945526 4.1076202 2.0688324 1.0601501.4149933 2.1354675.7986755 3.1916962 1.2065277.2352295.0935059.470459.1868896.7096252.2874146 1.8735809.775116 3.7194824 1.7449646 5.1461639 3.1225739.5529938.5338898 1.0392761 1.1317291 1.43927 1.7996216.9904175 1.6607666 1.173172 3.8713531.4897919 5.6168365-.4003143 1.0106506-1.0888672 1.8644867-2.0866089 2.3699799-.2032166.1012421-.4069214.1842957-.6217041.2641602-.8591156.319519-1.7862854.5053711-2.4857941 1.0930939-1.4677887 1.2266693-1.2278137 3.6274414-.197525 5.2343903 1.0374146 1.6030273 2.6551056 2.7384796 3.8890228 4.2024536 4.3305511 5.1335602 2.163147 14.2419891-4.0164032 16.8773651-6.1811981 2.6408539-14.2578888-2.1068573-14.9637909-8.7911682-.2178802-2.0716248.1637421-4.2109222-.3961945-6.2164307-.5583802-2.0109865-2.6251527-3.8706361-4.5778657-3.1457216z" fill="#9bd8ff"/><path d="m164.4196014 191.3345947c-.8104553-1.3807068-1.609848-2.7579956-2.4061432-4.146347.2596283 5.9310913-.0915222 11.866745-1.054245 17.729248-.0492859.3080597-.520462.2045441-.471283-.1035156 1.0028992-6.1193237 1.337616-12.3228455 1.0002136-18.5158386.0016479-.0054626-.0006256-.0181732.0026855-.029129-.7327576-1.2799835-1.4528198-2.5622406-2.1696625-3.8554382-7.5272064-13.5160522-14.3465424-27.4263153-20.4460297-41.6493073 2.0317535 8.2411652 3.2890015 16.5761261 3.8815765 24.9773102.0137329.135437.0218964.2693176.0301666.4032135.2244873 3.3220673.3480377 6.6622009.3684998 10.0076141.0024719.0724182-.0005188.1430817-.0035095.2139587.0071259.4202423.0071259.8444366.0072327 1.2685089-.0024872 1.0388641-.010437 2.0759735-.0364838 3.1136932-.0001984.1014404-.0003052.2028961-.0059814.3029022-.0365753 1.8410339-.1038208 3.6849823-.2018738 5.5318146-.0184784.3051605-.4979401.3305817-.4832611.0183868.1029968-1.9648132.1736603-3.9212494.2097168-5.8819275.0056763-.1000061.007431-.2070312.0076447-.3084717.019104-.9740906.0257263-1.9459076.0267639-2.9192657.0012207-.3879242.0023651-.7758484-.0035248-1.1599426.0029907-.0708771.0005188-.1432953.0035248-.2139587-.0266724-3.5265045-.1635437-7.0437164-.4123077-10.5463562-.0059967-.1211853-.0174561-.2440186-.0289307-.3669586-.6726379-9.0999603-2.1369171-18.1291504-4.5291138-27.0504913-.0089874-.0503998-.007019-.0976257.0099182-.1345062-.1085815-.2590942-.2171478-.5181885-.3257294-.7772827-.2288208-.539566-.45755-1.0791473-.6736603-1.6210022-.1556854-.3626099-.3057861-.7235565-.4598236-1.0917511-.3202667-.7756348-.638855-1.556839-.9559174-2.3435364-.1184845-.2859497.3440247-.4359589.460968-.1445312.3485565.8616943.697113 1.7233887 1.0582733 2.5830078.1446381.3592987.2931976.7258453.4487762 1.0884552.1785126.4470062.3640594.8901978.5496979 1.3333893 1.9111938 4.5675354 3.8958282 9.1090393 5.958786 13.6079865 1.5753326 3.4406586 3.198822 6.8598328 4.8579407 10.2596893 4.3121643 2.8520203 8.763382 5.4763489 13.3403168 7.8571777 1.4950714.782547 3.0092468 1.5408325 4.5331421 2.2662506 2.0730896.9892731 4.1773529 1.934021 6.2961884 2.8293915.3934937.1641541.7816315.3266602 1.1751251.4907074.2923584.1223145.0696259.5523834-.2172546.4317322-.3307953-.1336823-.6600342-.2728424-.9892731-.4120026-2.057785-.8594055-4.09935-1.7735748-6.1098175-2.7324829-1.5937347-.7519684-3.1706238-1.5407257-4.7282867-2.3537598-4.4197083-2.2865143-8.7167969-4.8056641-12.8852539-7.5375366 3.4608002 7.0449677 7.1089172 14.0018005 10.931076 20.8548279 1.3036346 2.3388824 2.6303253 4.6607208 3.9761047 6.9583893 1.0465088 1.8148041 2.1066589 3.603775 3.1793976 5.3903809l.0713806.0211792c.2539368.1108551.5007477.2257233.7546692.3365784 2.9820709 1.3297729 5.971283 2.6557312 8.9517059 3.9908752.2006226.0892639.406723.180069.6073456.2692261.2853546.126236.0680847.5578613-.2171478.4316101-.053299-.021698-.0995941-.0473175-.1527863-.0691071-3.0871429-1.3786469-6.1758423-2.7518158-9.2700043-4.1267242-.1049652-.0489807-.2170563-.0940094-.322113-.1429901.0922546.1526947.1806793.2983551.272934.4510498 3.6006927 5.9452515 7.3294678 11.8208771 11.196167 17.593811.1738739.2605438-.2266541.5242767-.4006195.2638397-3.7618408-5.622406-7.4088135-11.3304749-10.9188995-17.1174469-.0270691-.0499115-.061264-.095871-.0883179-.1456757-1.0797727-1.7828828-2.1438444-3.5789796-3.2006834-5.3789216z" fill="#37b1ff"/><path d="m61.047287 230.8862457c.0713844-.0169373.1343002-.0696259.2026901-.1729431.0750046-.1177673.2215919-.2453461.4255219-.3822327 3.305542-2.205719 22.1976089-6.6728516 27.0072021-8.0897064 5.1018448-1.4992065 5.5177612-10.4420319 5.5177612-10.4420319l1.0038452 10.800293s11.5611572-5.7180786 17.283577-13.2443542c2.5721512-3.3890991 3.0101776-7.4655151 2.7216339-10.9183655-.3668442-4.2351074-1.8166656-7.5458069-1.8166656-7.5458069.689682.565918 2.6318665 4.1543121 4.3263245 7.4564362 1.5628357 3.0474701 2.9152374 5.843399 2.9152374 5.843399s1.3677902-2.6335297 3.1322861-6.0587921c2.5321732-4.9141388 5.8918381-11.4633331 7.2468185-14.2548065.7176971-1.4799805.2805939-3.84758-.6744843-6.4055786-.222641-.5896912-.4672699-1.1930084-.7410278-1.8025208-2.161293-4.8909912-5.5790329-9.8813782-5.8825455-10.316925l7.8458023 9.4406738 1.3388672 1.6083984c.0200348-.0439148.0470123-.0953522.0670471-.139267.4086914-.8569336.5987701-1.7852631.6215057-2.7653351.0417328-1.4558105-.2949524-3.0278473-.8845367-4.6197052-1.5149994-4.1292114-4.7077255-8.4651337-7.427597-11.6514587-1.3676987-1.6073608-2.6241302-2.9234009-3.4676361-3.7645264-.6042404-.5905151-.9984665-.9437103-1.1014633-1.0048676-11.363327-6.7233734-21.4529724-5.780899-28.2142487-3.1641083-5.4547424 2.1022034-8.7471619 5.2794342-8.8082123 6.3976288-.0177689.3102417.2108459.4604492.7262497.3772736 2.3768997-.3798523 5.2700348.7987823 7.5170746 2.0291748.1904984.0940094.366951.1957703.5434036.2974243 1.2570419.7256317 2.2536621 1.4172821 2.7564545 1.7882538.2362595.1644745.3622971.2679749.3622971.2679749s-1.5432129.1340942-3.7805405.3865814l.000206.0072327c-2.0006561.2295532-4.5592804.5582733-7.0643845.9787445-2.5553131.4221039-5.0642471.936264-6.8858719 1.5411377-.4838867.1612549-.9795609.3948364-1.4871063.7008362-.2680893.1536255-.5423584.3361664-.816124.5331726-4.3970947 3.094162-9.1404648 10.2110291-9.1688766 11.8391571-.0106354.3101349.1588898.41922.5349274.2618866.8441315-.3541412 2.7872467-.1784058 4.9901733.2181854.1956635.0362549.3913345.072525.5942307.1085815.6816177.1340942 1.3854523.2890472 2.0824738.4514465.6096268.1365814 1.2198563.2877197 1.8009644.432663.4216995.114563.8287277.2225189 1.221405.33078 1.3012619.3498077 2.4004517.6849365 3.09272.9196472.7583771.2681885 1.0152054.4029999.4648819.3145752-.7026901-.1190186-2.5155411.327179-4.7651672 1.0480499-.5624084.1785278-1.1600418.3797607-1.764595.5884399-1.1238861.3855438-2.3037643.816452-3.4686584 1.2611847-.2275925.0800629-.4548645.1672516-.6821442.2546539-4.3465652 1.6811218-8.3582001 3.4655609-8.5031471 3.8452148-.2044449.525528-3.1562538 7.0027008-3.9943886 11.16539-.2133331 1.087616-.2812004 2.0115051-.1292381 2.6397095.1260338.5068359.4034157.8137512.8797684.8471222 1.1764641.0805817 3.0614166.6470184 5.015686 1.3406219 2.6037712.9369049 5.3167305 2.1074829 6.5601387 2.6536713.4460831.1927643.7023926.313324.7023926.313324s-2.1439438-.1540222-4.6314926.3521881c-2.8093452.5679779-6.0425644 1.9719238-7.1244011 5.3584595-1.5542641 4.8793182-.3708763 14.8595581.8724327 18.4369049.0077477.0141449.0157089.0354309.0234489.0494843.304447.867676.609207 1.3391726.8871039 1.2573549z" fill="#059eff"/><path d="m61.109993 230.4232178.0288239-.0010376s4.3241501-9.1828003 11.2169342-21.2506866c.0340958-.051651.061058-.10289.095047-.1617737.2103348-.3602448.4204636-.7277069.6302795-1.1024017 1.8990021-3.2861176 3.9780655-6.7728424 6.2061005-10.3226013.1363678-.2136383.2725296-.4345093.4086838-.6553802 1.8945618-3.0050201 3.8955307-6.0570374 5.9767609-9.0759888.1983566-.2950592.4040375-.5831757.60952-.87854.4385376-.627594.8766708-1.2624207 1.329567-1.8905182 1.1655197-1.6399078 2.3601685-3.2737274 3.5632858-4.8716888.3577576-.4663239.7086945-.9252167 1.0595245-1.3841095.2958755-.3849335.5920639-.7627258.8953705-1.1407318 1.2121048-1.5478516 2.4398117-3.060379 3.6835327-4.5302429.1384354-.1562042.2696381-.312088.3937073-.4677734 1.9014816-2.2060394 3.828064-4.3121643 5.7669449-6.2748108.2222137-.2310944.4449463-.4478302.6748047-.6648865 3.2061539-3.1742249 6.4703674-5.9327545 9.7410889-8.101181 1.8918686-1.2627258 3.7908707-2.3238983 5.6767578-3.1469574.0069122-.0075378.0069122-.0075378.0141449-.0077362.9073563-.3994904 1.8237-.7488861 2.7280426-1.0330811.0425644-.0160217.0926666-.0249023.1353378-.040802-.7321472-.744339-1.2306061-1.1947632-1.3409348-1.2627411-11.289772-6.6756287-21.3236313-5.7855377-28.0864563-3.2119293-6.1877136 2.3442535-9.6394272 6.1032104-8.831871 6.7441254.1189041.1036224.3215942.1325378.6150894.0859528 2.4199905-.3812103 5.3794403.8381348 7.6415634 2.0895996.315918.1759338.6099319.345459.8968124.5153046 1.5816422.9444427 2.6480865 1.77771 2.6480865 1.77771s-.0931854.0105438-.2583694.0235596c-.5167465.0472107-1.7653198.1637421-3.4075012.3517609-1.9934235.2293396-4.5592728.5583801-7.086174.9723358-2.5910645.4306946-5.1356354.9532166-6.9857712 1.5662537-.3986588.1294403-.8095245.3169403-1.225853.5549622-.261467.1388397-.5291367.3068237-.803421.4893646-4.8595963 3.2474823-10.2895432 11.7064056-9.3316803 12.3201599.0885391.0617828.2323456.0566101.4309006-.0296478.865509-.3619843 2.8884811-.1676636 5.1569061.2484589.1956711.0361481.3913345.0724182.5942307.1083679.6818314.1413269 1.3854599.2890472 2.0824738.4514465.6099319.1439209 1.2129364.2952576 1.7940445.440094.719635.1903992 1.4101486.3746033 2.0285416.5541534 2.1823807.628006 3.5102921 1.1206665 2.5904465.9662323-.1014481-.0180817-.2239761-.020874-.3606491-.0159149-.8556976.0303802-2.4538651.440094-4.3618469 1.0480652-.5696487.1787109-1.1600494.3797455-1.771843.5886383-1.0740891.3695374-2.1971436.7766724-3.3125534 1.1979523-.2272797.0872955-.4545593.1745911-.6818314.2618866-4.4251862 1.6983795-8.5500526 3.537262-8.7019157 3.9242401-.2108421.5474396-3.4030495 7.55159-4.076931 11.679657-.1716995 1.0428925-.1843033 1.9001465.0644646 2.4167786.1486664.3331757.4003143.5257416.7686081.5559082 1.1692352.08078 3.0541878.6472168 5.0016403 1.3483582 3.5367393 1.2564392 7.276577 2.959259 7.276577 2.959259s-.2165375-.0139465-.5912323-.02211c-.8425751-.0059967-2.4754562.0377045-4.2547226.4178772-2.758007.5949554-5.8612633 2.0087128-6.9099388 5.3147583-1.59972 5.017868-.2998009 15.4403687.983593 18.728241.0077477.0141449.0157089.0354309.0234489.0494843.1345062.3409119.2733536.6023865.4015579.763443z" fill="#cdecff" opacity=".49"/><path d="m121.3584976 153.1344299c.0189056.021698.0328522.0478363.0413208.0756226.0394669.125824-.0372925.271698-.1706619.3265533-7.5959015 3.0876617-15.6379929 9.4361267-23.9028091 18.8683167l-.1549606.176651.0674667.2006226c.3715897 1.0996094.7559967 2.2212219 1.1469116 3.3592529 1.9138794 5.5788269 3.8892288 11.3349152 5.1309814 16.8378143.0293427.1300659-.0581589.2714844-.1940079.3165283-.0955582.031311-.1954575.0069275-.2551727-.0617828-.022522-.0260315-.0378113-.0567017-.0453491-.0910034-1.2381439-5.487915-3.2103882-11.2354279-5.1179657-16.7932739-.31633-.9229584-.6279068-1.8314514-.9327621-2.7303314l-.1968002-.5799561-.4421616.5162201c-5.4736481 6.3956757-11.0549469 14.1435394-16.5899658 23.0296478l-.0804672.1287231.0230255.1386414c.4432983 2.7038727 1.107872 5.8128052 1.8107758 9.104599.2884369 1.3472443.5807953 2.7159729.8631363 4.0821075.0132217.062912-.0007248.1299591-.0379105.1889496-.0379181.0592957-.094841.103302-.1612625.1238708-.095047.0297394-.1909103.0052643-.2502136-.0632324-.0232468-.0269623-.03936-.0592957-.0472107-.096283-.2822342-1.3639679-.5739746-2.7318726-.8614731-4.0782776-.5691299-2.6617126-1.1571579-5.4139404-1.5885696-7.8168793l-.1646729-.9169464-.5280075.8617859c-10.4791107 17.1072235-17.1751022 32.3903503-17.2410126 32.543045-.0280991.063736-.0779991.1159058-.1406021.1465912-.0630188.031311-.131916.0377045-.1937027.0177765-.0388412-.0119934-.0713844-.033783-.096489-.062912-.0570259-.0657043-.0685959-.1603394-.030777-.2483521.069622-.1603394 7.1302948-16.3244781 18.0047607-33.8726196 1.1815338-1.9065399 2.4184265-3.8422241 3.6770248-5.7549591l.5042496-.7654114-.8719177.2327576c-4.3278656 1.1554871-15.2523422 3.8034821-16.2735367 4.021347-.0879135.0182953-.1719055-.007431-.2255249-.0692139-.0288162-.0334625-.0458679-.0738678-.0499954-.1202545-.0071335-.0645599.0135269-.1308899.0560913-.1867676.0431824-.0561981.1040344-.094635.1710815-.1092987 1.6609802-.3535309 15.2314682-3.678894 17.4650879-4.3536987l.1503067-.0452576.0891571-.1326447c4.838623-7.2243042 9.6794128-13.5307159 14.3878632-18.7441406l.503212-.5575409-.7047653-.041748c-7.3683167-.4397736-14.6157608.483078-20.732811 1.4438324-.0824432.0128174-.1592941-.0138397-.2103348-.0726166-.0318222-.0367889-.0500031-.0832672-.0525818-.1349335-.0049591-.1334686.1044388-.261673.2438049-.2838898 6.4166412-1.0069275 13.999939-1.9620056 21.5922241-1.4130402l.2270737.0573425.2069244-.1708679c7.4948654-8.0742188 14.8671036-13.6208038 21.9113464-16.4848022.0998994-.0401914.2097093-.0184934.2726289.0543368z" fill="#69c5ff"/><path d="m192.8435669 91.8255768c-.0073395.0730362-.0511475.1423569-.1445312.2237625-.1068268.0899811-.2138519.2522812-.3224182.4725342-1.7476501 3.5688629-3.6690826 22.886673-4.435318 27.8417206-.8092041 5.2555695-9.6178284 6.8542557-9.6178284 6.8542557l10.8379974-.4379272s-4.1338348 12.2175751-10.8343811 18.8879547c-3.0179291 2.9989166-7.0002289 3.9739227-10.4608307 4.1459351-4.2462616.198349-7.7200775-.7996063-7.7200775-.7996063.6523895.6085968 4.4667053 2.0575867 7.9644012 3.2989349 3.227951 1.1448517 6.1785126 2.1142883 6.1785126 2.1142883s-2.4287567 1.7050934-5.5896606 3.9083405c-4.53479 3.1618347-10.5804596 7.3605652-13.1674957 9.0739136-1.3715973.9076691-3.776413.7885437-6.4384308.1811981-.6139679-.1423492-1.2444458-.3048553-1.8848572-.4952545-5.134491-1.4934082-10.5341644-4.2188721-11.0061951-4.4619598l10.3980255 6.5239868 1.7718353 1.1136627c-.0409088.0257111-.0882263.0592957-.1290436.0849152-.7952576.5188141-1.6901093.8303833-2.6584167.9829712-1.4375153.2345123-3.0403442.1091919-4.6962585-.263855-4.2937775-.9538422-9.0149384-3.5432434-12.533905-5.8163147-1.7745132-1.1422729-3.2456131-2.2130585-4.1912918-2.937561-.6654053-.5205688-1.0677872-.8644714-1.1420517-.958374-8.1714401-10.3710632-8.5757828-20.4965515-6.8790588-27.5451355 1.3599396-5.6854248 4.0722809-9.3703079 5.1725082-9.5790939.3051682-.0587845.4843063.1478348.4703598.6697388-.061264 2.4062424 1.4908295 5.1175613 3.0084229 7.1814346.1184921.1764526.2426682.3378143.366951.499176.8859634 1.1496124 1.703743 2.0457001 2.1380539 2.4948883.1943207.2122955.3136368.3235626.3136368.3235626s-.0717926-1.547348-.1182861-3.7985229l.0071335-.0007172c-.0379181-2.0133667-.0514526-4.5930634.0329514-7.1317444.0793457-2.5887909.2562027-5.143692.6140671-7.0294647.0955505-.5010452.2613678-1.023262.4973297-1.5668716.1167297-.2861633.2612457-.5822372.4201355-.8797684 2.4835205-4.7686768 8.9083252-10.414238 10.5182648-10.6584549.3059082-.0515518.4365845.1019669.3304901.4954605-.2390594.8836975.1928711 2.7863159.8783264 4.9171371.0618744.1891556.1237488.3783112.1863556.5746002.2233582.657753.4702606 1.334938.7236786 2.0041656.2163239.5861664.4470062 1.1708908.6677704 1.7277145.1695404.4028015.3304901.7918549.4899902 1.1667557.5192261 1.243309.9973297 2.288269 1.3217163 2.9433441.3664398.7161255.5341034.9526978.3735657.419014-.2112579-.6806946-.0095062-2.5367203.4066162-4.8620758.1022797-.5811005.2224274-1.200119.3491821-1.827095.2329712-1.1651077.5035248-2.3916779.7897949-3.6053314.0491638-.2361603.1054688-.4730453.1618805-.7098312 1.0896912-4.5311737 2.3261719-8.7441635 2.6832123-8.9380722.4938049-.2724228 6.52211-4.0574112 10.53685-5.4403915 1.0496063-.3556824 1.9564514-.5455627 2.5992279-.4782104.5190125.0576477.8600464.2918472.9563141.7596207.2359619 1.1553955 1.0474396 2.9485092 1.9941559 4.7934799 1.2740936 2.4565506 2.7942657 4.9900665 3.500473 6.1501083.2503052.4165344.403717.6545563.403717.6545563s-.4369812-2.1044769-.2652893-4.6371689c.1902924-2.8599701 1.1529083-6.2508316 4.3659973-7.7723541 4.6299286-2.1878433 14.6789703-2.3388824 18.3895874-1.5811234.0150757.0057907.0372925.010849.0522614.0166397.9003446.1866758 1.4081876.4262464 1.3638761.7125089z" fill="#059eff"/><path d="m192.3929291 91.9491348.0027924.028717s-8.5279388 5.5041275-19.5747223 13.9369278c-.0466919.0407028-.0940247.0742722-.1477356.1156006-.3292389.2563019-.6656189.5133362-1.0091095.7710876-3.0051117 2.3181229-6.1852417 4.8413086-9.40802 7.5205917-.1937103.1635361-.3945312.3277893-.5953674.491951-2.7271118 2.2765884-5.4867706 4.66465-8.2029266 7.1281204-.2661285.2356491-.5243988.4777985-.7899017.7206726-.5638428.5177841-1.1349335 1.0362854-1.6974487 1.5685196-1.4707794 1.3728561-2.9316559 2.7736053-4.3558502 4.1780701-.4147949.4165344-.8230591.825119-1.2313232 1.2338104-.3422699.3443146-.6775055.6880188-1.0119019 1.0387573-1.3733826 1.4067383-2.7096558 2.8243256-4.0016174 4.2519379-.1363678.157959-.273468.3086853-.4112701.4523773-1.9343414 2.1772156-3.7662964 4.3661957-5.4544373 6.5483704-.1996002.2509308-.3848267.5003204-.5694427.7570343-2.7208099 3.5989227-5.0219879 7.2001343-6.7373047 10.7297363-1.0005341 2.0426025-1.8004456 4.065567-2.3660507 6.0440216-.0065155.007843-.0065155.007843-.0058975.0150757-.2755203.9522858-.5002136 1.9069519-.6619949 2.8409576-.0102234.0443268-.0123978.0951538-.022522.1395721-.8348236-.6269684-1.3473358-1.0611725-1.4293594-1.1615906-8.1144028-10.3043213-8.5631714-20.3677216-6.909523-27.4120636 1.5027084-6.4440231 4.7705383-10.3640289 5.5128021-9.6485214.1185989.1041336.1740723.3011398.1668396.5982513-.0568161 2.4492188 1.5444489 5.2206497 3.0848694 7.2968216.2163315.2897797.4233551.5587006.6296616.8204803 1.1459961 1.4423828 2.1133652 2.3888855 2.1133652 2.3888855s-.0019531-.093811-.0109482-.259201c-.021698-.5184021-.071907-1.7715149-.1034164-3.4240265-.0370865-2.0062408-.0513382-4.5931625.0236588-7.1526108.083168-2.6252518.2635422-5.2167282.6257401-7.1318436.0754089-.4122009.2067184-.8444366.3873978-1.2886581.1029968-.2774887.2338867-.565094.3785248-.8611755 2.5740051-5.247406 10.2378845-11.7515564 10.9733276-10.883667.072937.0796509.0868835.2228317.0278015.4310989-.2440186.9059067.2169342 2.8851776.9302826 5.0783005.0618744.1891556.123764.3783112.186264.5745926.2305756.6571426.4703522 1.3349457.7237701 2.0042725.2234497.5854492.4535217 1.1629333.6740875 1.7197647.2843018.6880264.5584717 1.3479538.8184052 1.9371185.9120026 2.0797882 1.5764618 3.3306427 1.3013611 2.4393005-.0314026-.0981445-.0503082-.2192154-.0636444-.3552704-.0833588-.8521881.1107483-2.4906464.460144-4.4623795.1015472-.5882339.2225189-1.200119.348465-1.8342285.2237549-1.1135483.478302-2.2807159.7479401-3.4422073.0562897-.2368851.1127014-.4737701.1691132-.7105484 1.0962982-4.6113434 2.3717346-8.9437561 2.7350616-9.1456223.514679-.2816162 7.0334015-4.3747711 11.0355377-5.5902863 1.0109711-.3084793 1.8589172-.4348221 2.404068-.2567215.3498993.1031036.5741882.326973.6529083.6880341.2352295 1.148262 1.0467072 2.9413757 1.9999237 4.7784958 1.7145996 3.3387985 3.8985291 6.8197479 3.8985291 6.8197479s-.042572-.2128143-.1004181-.5830688c-.1177673-.8343124-.2910156-2.4586182-.1502075-4.2725983.2238617-2.8125458 1.2133484-6.0759354 4.3511047-7.5538559 4.7612457-2.2512741 15.2641144-2.3455963 18.6931152-1.5096359.0150757.0057907.0372925.010849.0522614.0166397.3556976.0881195.6332855.1911163.8098297.2967987z" fill="#cdecff" opacity=".49"/><path d="m123.7799225 161.9183655c.0239716.0158081.0518646.0262451.0804749.030899.1298599.022522.2643661-.072937.3010406-.2124023 2.0526199-7.9383698 7.2781219-16.7516479 15.5305481-26.1946869l.1545563-.1770782.2077484.0402985c1.139267.2224121 2.3018951.4546509 3.4817657.6911163 5.783371 1.1568451 11.7506256 2.351181 17.3696442 2.8519135.1327515.0118866.2613678-.0935974.2880096-.2342987.0182953-.0988617-.019104-.1946259-.0951385-.2446289-.028717-.0189056-.061264-.0299683-.0961761-.032959-5.603714-.4990845-11.562088-1.6915588-17.323761-2.8448792-.9568481-.1911163-1.8985901-.3793488-2.8300171-.5623016l-.6009369-.1180878.4530029-.5067291c5.6130066-6.2737579 12.5519867-12.8335953 20.6252594-19.4984894l.1168518-.0969009.1404877.0044403c2.7389069.0806885 5.9084778.326973 9.2643433.586998 1.3736725.107132 2.769043.2152939 4.1605988.3139496.0640411.0047531.1287231-.0179749.1822357-.0625992.0537109-.0454559.0898743-.1077499.1013336-.1763458.0169525-.0981445-.0201416-.1899872-.0958557-.2395706-.0297546-.0195312-.0639496-.0310974-.1016541-.0340958-1.389389-.0987625-2.7838287-.2064056-4.1564941-.3127136-2.7137756-.2110519-5.5196228-.4288254-7.9585114-.5376129l-.9308014-.0415268.7842102-.6377182c15.5657806-12.6559143 29.8256378-21.3202209 29.9681091-21.4058609.0595093-.0362625.1046448-.0926666.12677-.158783.0226135-.0665283.0198212-.1357498-.0081787-.1943207-.0170441-.0369873-.0429688-.06633-.0751038-.0872955-.0727234-.0477295-.1679688-.0467987-.2503052.0023727-.1495972.0902939-15.2342682 9.2329178-31.1846619 22.3392487-1.7329865 1.4239883-3.4874573 2.9067688-5.2163086 4.4080353l-.6917419.6013489.114975-.8951569c.5711823-4.442955 1.746521-15.6220779 1.8269958-16.6631088.0065002-.0895691-.0301666-.1695328-.0985565-.2143631-.0369873-.0241776-.0792389-.0356445-.125824-.0336838-.0648804.0015488-.1278992.0307846-.177597.0804749-.0499878.050209-.0800629.1156082-.0857391.1839981-.1299591 1.6932068-1.6256561 15.5849915-1.9982758 17.8883362l-.0247955.1549606-.1197357.1059952c-6.5186157 5.7542343-12.1270752 11.3888474-16.6697235 16.7472l-.4858551.5728455-.1348114-.6929932c-1.4133606-7.2448578-1.4601593-14.5506744-1.3194427-20.7411804.0018463-.0833664-.0348206-.1559906-.0998993-.198761-.0406036-.0266571-.0891571-.0385361-.1406097-.0343018-.1330566.0128174-.2455444.1382294-.2490692.2793503-.1469116 6.4934998-.0873871 14.1365128 1.4638672 21.5888138l.0868835.2175751-.1418457.2276764c-7.0084991 8.4997406-11.5280991 16.5426636-13.4322662 23.9045715-.0265504.1043394.0093993.210327.089981.2630156z" fill="#69c5ff"/><path d="m83.9611282 183.90802-22.7621803-11.1035004c-.354557-.1729431-.5794601-.5328674-.5794601-.9273987v-118.3522338c0-.8546638.8951607-1.4139709 1.6632538-1.0392761l21.6783867 10.5747795v120.8476295z" fill="#f2b705"/><path d="m83.9611282 183.90802 23.3416367-11.3861542v-120.8476333l-23.3416367 11.386158z" fill="#f29f05"/><path d="m130.6444092 183.90802-23.3416443-11.3861542v-120.8476333l23.3416443 11.386158z" fill="#f2b705"/><path d="m130.6444092 183.90802 23.3415375-11.3861542v-120.8476333l-23.3415375 11.386158z" fill="#f29f05"/><path d="m175.6643219 183.0966492-21.6783752-10.5747833v-120.8476334l22.7621765 11.103508c.3545532.1729355.5794525.5328598.5794525.9273911v118.3522414c0 .8546601-.8951416 1.413971-1.6632538 1.0392762z" fill="#f2b705"/><path d="m180.8803253 63.9310646c0 19.2606773-34.8743896 56.5690956-34.8743896 56.5690956s-34.8744812-37.3084183-34.8744812-56.5690956c0-19.2605743 15.6138153-34.8743896 34.8744812-34.8743896 19.2605743.0000019 34.8743896 15.6138153 34.8743896 34.8743896z" fill="#d91a3d"/><circle cx="146.005936" cy="65.620766" fill="#fff" r="18.595377"/><circle cx="68.869537" cy="29.056677" fill="#f29f05" r="7.262528"/><circle cx="164.601303" cy="202.503403" fill="#f29f05" r="6.801092"/><g fill="none"><path d="m68.8695374 29.0566769c1.8811493.7844696 3.6554108 1.7008038 5.3311234 2.7396908" stroke="#d91a3d" stroke-linecap="round" stroke-linejoin="round" stroke-width="5"/><path d="m83.0021362 39.2712975c32.1504898 36.1469612 15.5801697 134.089386 70.4646454 159.3799438" stroke="#d91a3d" stroke-dasharray="11.588668 11.588668" stroke-linecap="round" stroke-linejoin="round" stroke-width="5"/><path d="m158.8443756 200.8119354c1.8453827.6391296 3.7631683 1.2042999 5.7569427 1.6914673" stroke="#d91a3d" stroke-linecap="round" stroke-linejoin="round" stroke-width="5"/><path d="m95.686142 25.847323h4.167625" stroke="#f9a63a" stroke-miterlimit="10"/><path d="m108.2034 25.847323h4.167534" stroke="#f9a63a" stroke-miterlimit="10"/><path d="m98.129562 19.948351 2.946953 2.946955" stroke="#f9a63a" stroke-miterlimit="10"/><path d="m106.980553 28.799337 2.946953 2.946955" stroke="#f9a63a" stroke-miterlimit="10"/><path d="m104.028534 17.504919v4.167637" stroke="#f9a63a" stroke-miterlimit="10"/><path d="m104.028534 30.022087v4.167637" stroke="#f9a63a" stroke-miterlimit="10"/><path d="m109.927506 19.948351-2.946953 2.946955" stroke="#f9a63a" stroke-miterlimit="10"/><path d="m101.076515 28.799337-2.946953 2.946955" stroke="#f9a63a" stroke-miterlimit="10"/><path d="m192.3956146 149.5557556c1.9354706 0 3.5045166 1.568924 3.5045166 3.5043945s-1.569046 3.5045013-3.5045166 3.5045013c-1.9354553 0-3.5043945-1.5690308-3.5043945-3.5045013s1.5689392-3.5043945 3.5043945-3.5043945z" stroke="#f9a63a" stroke-miterlimit="10"/><path d="m124.2051392 19.410635c1.1107635 0 2.0111923.9004307 2.0111923 2.0111942s-.9004288 2.0111923-2.0111923 2.0111923-2.0112915-.9004288-2.0112915-2.0111923.9005279-2.0111942 2.0112915-2.0111942z" stroke="#f9a63a" stroke-miterlimit="10"/><path d="m48.1530457 47.424675c1.1107712 0 2.0112953.9004288 2.0112953 2.0111923s-.9005241 2.0111923-2.0112953 2.0111923c-1.1107635 0-2.0111885-.9004288-2.0111885-2.0111923s.9004249-2.0111923 2.0111885-2.0111923z" stroke="#f9a63a" stroke-miterlimit="10"/><path d="m50.164341 118.4889679c1.1106606 0 2.0111961.9004288 2.0111961 2.0111923 0 1.1107712-.9005356 2.0112-2.0111961 2.0112-1.1107635 0-2.0112953-.9004288-2.0112953-2.0112 0-1.1107635.9005317-2.0111923 2.0112953-2.0111923z" stroke="#f9a63a" stroke-miterlimit="10"/><path d="m111.803879 226.264053h6.450638" stroke="#f9a63a" stroke-miterlimit="10"/><path d="m115.029251 223.038895v6.450531" stroke="#f9a63a" stroke-miterlimit="10"/><path d="m43.86113 176.514496 4.561344 4.561249" stroke="#f9a63a" stroke-miterlimit="10"/><path d="m48.422474 176.514496-4.561344 4.561249" stroke="#f9a63a" stroke-miterlimit="10"/><path d="m156.678558 2.5 4.561234 4.561239" stroke="#f9a63a" stroke-miterlimit="10"/><path d="m161.239792 2.5-4.561234 4.561239" stroke="#f9a63a" stroke-miterlimit="10"/></g></svg>