<svg enable-background="new 0 0 240 240" viewBox="0 0 240 240" xmlns="http://www.w3.org/2000/svg"><path d="m115.2865753 102.9573746s-.5682831 9.2468414-4.2613983 20.9650726l.0004501.0080795c-.5887833 1.8626785-1.2557297 3.7796097-2.0102005 5.7349701-1.3898849 3.6085358-3.0819626 7.343277-5.154129 11.0213013-1.9531555 3.4982758-4.2532349 6.9459381-6.9337692 10.2060089l.123497.5071106c.1488037.6445618.3128433 1.2716675.4452515 1.9172821l.3731918 1.9382629.461319 2.4069366.1497345.7834167.8807755 4.5548096c.5541077 2.5725098.8572311 5.186142 1.2494049 7.7857056l1.1281281 7.809967-1.5484238.0856628-1.0728226-7.7155304c-.3742523-2.5761414-.6594467-5.1663361-1.1868362-7.7079163l-.682991-3.6599731-.1506882-.7998047-.6044846-3.2153168-.3553848-1.9149323c-.131813-.6374207-.2877731-1.2651062-.4361115-1.901474l-.37706-1.6272733c-23.4021225-5.6222534-38.0599594-27.2377472-38.0599594-27.2377472 21.8679962 4.8073273 33.9758224 20.1214294 37.6525574 25.522583l-.1028824-.4431458c-1.4667511-6.6180878-3.2859497-13.1230011-5.3108063-19.5244446-21.6927109-1.7763214-36.5969543-19.932312-36.5969543-19.932312 21.0572891 1.4419098 33.2527542 15.1064835 36.2871552 18.9549866-.9889297-3.0918121-2.0261383-6.1723709-3.102005-9.2175522-.9154663-2.5978088-1.8788528-5.1760559-2.8805542-7.7190399-18.0558014.6665955-31.3931198-12.8245621-31.3931198-12.8245621 15.6409149-1.1944504 26.1531982 6.5368958 30.463829 10.5139389-1.5909576-3.9109573-3.2752991-7.750206-5.0448227-11.5185699-14.8270187.8872223-25.8600426-10.2774811-25.8600426-10.2774811 13.9645271-1.0676727 22.8367729 6.722725 25.4410362 9.3808823-.8650818-1.8322144-1.7545319-3.6629028-2.6505432-5.4686356-1.496048-2.9684296-3.0551224-5.9000702-4.6599197-8.7795639-11.4201469.7036133-19.9199028-7.888237-19.9199028-7.888237 10.7499237-.8230133 17.5573692 5.1732483 19.5481148 7.2094574-1.8985367-3.3672791-3.8651428-6.648201-5.9299431-9.8082123-12.3227196-10.0083389-17.2222558-25.5277366-17.2222558-25.5277366 10.2703362 8.156208 14.8809433 18.1739235 16.6194038 22.9585152 3.3473625 4.8746948 6.4449196 10.0521622 9.3659019 15.4049225-.9544907-3.5602646-2.7788544-13.00103.2117157-25.2045822 0 0 3.5702286 12.4744568.3574905 26.2711945.8206711 1.532608 1.6419296 3.0732956 2.4313126 4.6244202 1.5029678 2.9515533 2.9524994 5.9558411 4.3550415 8.9958572-.4923553-4.9892883-1.1051636-20.2432938 7.2822266-36.9328842 0 0 2.0255432 19.9372406-6.7678375 38.03582 1.6053696 3.5091782 3.1324768 7.0727234 4.5737915 10.6990738.0439453.0461655.0704269.077095.0704269.077095l-.0406647.0026932c.3315964.812355.6392899 1.634552.9638596 2.4636536-.4838028-6.3475418-.5166092-21.8604965 7.9643936-38.7443542 0 0 2.1673431 21.3428268-7.1809845 40.8274384.3272781.8698807.6539383 1.7316818.9654922 2.610817 1.3309555 3.6909103 2.5989914 7.4186172 3.8041 11.1832275.0857697-7.3828735 1.6413422-24.8571701 13.1583862-42.2110062 0 0 .4059982 24.5259247-12.3693542 44.7517624 1.6435699 5.3304901 3.1280212 10.7288208 4.3805847 16.2078857l.3940506 1.6343231c.3742599-6.1096954 2.4774933-23.5873795 14.4165726-40.6173553 1.3232195-1.8865816 2.7693559-3.7730486 4.3476564-5.6354906z" fill="#9bd8ff"/><path d="m165.1134644 135.671051c-.617569.682785-1.2481079 1.3527527-1.8708038 2.0252075 2.3343964-1.3675842 6.1334534-3.3562622 11.1512756-5.2134857 1.4057312-.5200958 2.9122009-1.0331879 4.5118408-1.5157928 3.1913452-.9679565 6.7602081-1.8298492 10.6376953-2.4537964 4.1921082-.6672516 8.7549286-1.0504303 13.6435394-.9841537 0 0-3.7941437 2.3422623-9.9995117 4.9453354-4.9906158 2.089325-11.5415649 4.3564911-18.9320679 5.6974945-.6031342.1122589-1.2037811.2167969-1.8174591.308548-3.0499573.4817352-6.2274323.8017578-9.4865265.8720093-.4359894.0209045-.8669891.0262604-1.3056946.0291443-.6665497.7011261-1.3329773 1.4022675-2.0046387 2.0930939-2.8587494 2.9219818-5.7690735 5.8184814-8.7547607 8.6561737 2.4443512-1.151474 6.1351013-2.7032471 10.8308868-4.0990601 2.6814728-.7993622 5.6807404-1.5466309 8.957016-2.1434174.4305573-.0827789.8661804-.1552429 1.2993164-.2200012 7.0844116-1.191925 15.3865204-1.6432343 24.4737396-.4221802 0 0-3.467453 1.7619781-9.1763763 3.7372437-.2986145.0999908-.5999451.2077942-.9090118.3129883-4.8489838 1.6290741-11.137619 3.3551788-18.2155914 4.3431091-.5028381.0677032-1.0056915.1355286-1.5239563.1982574-1.7612762.2153931-3.5667572.3819427-5.4036102.4867249-3.4106293.1925507-6.9360504.1843872-10.5201111-.1175079-.2427521-.0190125-.4855194-.0380402-.7256775-.0648651-.3745575-.0363617-.7411957-.0700836-1.1130371-.1141357-4.2481079 3.9711304-8.6362915 7.8191986-13.1985779 11.4903564l-1.3502502 1.1134033c2.2546539-.9386139 6.1861267-2.386261 11.3835297-3.6354675.2861633-.0612183.574707-.1302795.8710632-.1967163 5.3266144-1.2242889 11.9013824-2.1960754 19.3083344-2.1926117 4.5397491.0040894 9.3889313.3752289 14.4505615 1.2791138.2351685.0423737.4703522.0847473.7027893.1347961.1473236.0223236.2920532.0523376.4367828.0823517.3488464.0623016.6950836.132309 1.0491486.2048035 1.2224274.2527313 2.4526672.533905 3.6960754.8534851 0 0-4.5223541 1.8644257-11.6933899 3.6116943-.811676.1988678-1.6569977.3952332-2.5357666.5894623-2.6724243.5876617-5.6394043 1.1308289-8.8189087 1.5617828-6.1008148.8087921-13.0021515 1.1762085-20.1346893.5153961-.2479706-.0294495-.4906158-.0484619-.7385864-.0777893-3.0989838-.3154449-6.2355194-.8318176-9.3709259-1.5883484l-.4234924.3511505c-.5342102.4267426-1.0473328.8688049-1.5969543 1.290451l-1.6385498 1.2340088-6.5852509 4.9256134c-2.1568756 1.6915894-4.4726944 3.1595764-6.7310257 4.7150726l-1.3773499.9328461-3.6692352 2.4859772-1.7549438 1.1959381-.7911987-1.4169159 5.5376282-3.7136536 1.2075806-.8078461c1.1486588-.784256 2.3153458-1.545517 3.469101-2.319458l.0026016-.0076904c1.0895157-.7349701 2.1684952-1.4904327 3.2136612-2.2998352l6.5367508-4.8298492 1.6309662-1.2106628c.5470123-.4138336 1.0577545-.848175 1.5917358-1.2749329l1.3530884-1.0952454c-1.6460876-7.4814758-1.516037-14.8815308-.5528107-21.5462341 2.2062225-15.1611404 8.757309-26.5360489 8.757309-26.5360489 1.3419495 5.5709381 1.8177795 10.8765488 1.7207947 15.806633-.2837524 15.1356659-5.9485626 26.6623535-8.500473 31.1178131l.3722534-.299118c5.5280304-4.3948975 10.7987823-9.0539398 15.8800201-13.8692474-2.4567719-6.3379822-3.2624054-12.7641907-3.1821747-18.6696167.1840515-13.8034363 5.2025757-24.7166977 5.2025757-24.7166977 3.8242035 9.4621887 4.3051758 18.3319931 3.5031586 25.5814896-.9134521 8.380661-3.5518951 14.6022034-4.7514954 17.0694427 2.4546509-2.3412323 4.8678284-4.7131653 7.2369232-7.1081238 1.2178497-1.2337341 2.4228058-2.4803925 3.6069031-3.7423553.7818909-.8179932 1.5481567-1.641098 2.3092194-2.4745026-8.8466492-16.6197739-2.2678528-35.2650604-2.2678528-35.2650604 8.2368011 14.1203995 5.7815247 27.4920425 4.0206909 33.3386993 2.9363403-3.2657471 5.7639923-6.592659 8.4957733-9.9680862-7.5822449-13.4948578-2.1389313-28.9223175-2.1389313-28.9223175 7.3571777 12.6060333 4.0972137 24.4705429 2.7866516 28.1206589 1.3287811-1.652626 2.6419067-3.3103638 3.9163971-4.9806595.1049347-.1374817.2123566-.2826691.3171692-.4201584 1.9960938-2.6195297 3.9300842-5.2593384 5.7992249-7.9374542-.7832489-1.388588-1.3885803-2.7963409-1.8391113-4.2051392-2.9833527-9.1451645.166626-18.0667725.166626-18.0667725 1.6286469 2.7973404 2.578064 5.5448685 3.082428 8.1043091 1.2490997 6.3304062-.2296143 11.5223083-.9445343 13.5038834 2.2961273-3.3029633 4.4784546-6.6514587 6.4953308-10.0196762 3.7692261-16.110672 16.0890961-27.7760544 16.0890961-27.7760544-2.9715118 13.3492584-10.2536926 22.2280884-13.9505768 26.0356216-3.0543365 5.3646622-6.4940338 10.620903-10.189743 15.7936401 2.9129639-2.5093536 10.9338074-8.520607 23.7168579-11.2617874-.3052673.278038-10.269516 9.0634079-24.445694 12.2859268-1.0640564 1.4728622-2.133316 2.9354095-3.2337494 4.3877487-.5884552.7780914-1.182251 1.5458603-1.7785187 2.3213425-1.5253754 1.9662399-3.0793152 3.9144592-4.6666718 5.8604279.8148041-.4981842 1.9512329-1.166275 3.3786926-1.9111252 6.3892365-3.3242035 18.6569672-8.3022919 34.5587616-8.0778809 0 0-15.9601746 9.8514023-35.47229 10.8788681-1.0757446.0611954-2.1673584.0914383-3.2666779.093483-2.5632782 3.0955887-5.2068939 6.1477737-7.946167 9.1515732-.0281219.059494-.040802.0982513-.040802.0982513-.0129244-.0128022-.0181429-.022995-.0233614-.03331z" fill="#37b1ff"/><path d="m166.208252 54.6332855c2.6838074 1.0174026 5.3732605-1.3717308 8.1958008-1.9086113 4.6865234-.898941 8.9805298 3.9202156 9.0652313 8.6898079.074173 4.7672501-2.8702393 9.0797577-6.2679901 12.4164581-3.4000854 3.3473587-7.3918915 6.1112061-10.3641815 9.8419571-.5557556.6938858-1.0757599 1.5310822-1.321701 2.3789368-.0348053.1049881-.0630341.205986-.080368.3092117-.1335754.6472626-.0918732 1.2941666.2381897 1.88694 1.2895966 2.3081665 4.6787872.9782639 7.2698059.3669815.0411377-.0077362.0823975-.0154724.1236267-.023201.0651398-.0135956.136734-.0314026.2061005-.0385513 1.412735-.2878876 2.8150482-.2001266 4.1523285.1778641.1415405.0485153.2787476.0904617.4203033.1390839 2.1783295.7295151 4.1425934 2.2405624 5.6135712 4.1661606.1281891.1584167.2498169.3210526.3648834.4877853l.0125275.0196838c1.2411957 1.767067 2.0717163 3.8315201 2.3157959 5.9454117.1015778.8578186.1298218 1.716095.0869293 2.5640717-.0067902.2072754-.0202637.4186554-.0378418.6235886-.2189789 2.7211914-1.0782166 5.378418-2.3337097 7.8906937-1.1406708 2.3009033-2.6089478 4.4777222-4.2007294 6.474678-1.3093872 1.6425095-2.7011566 3.1990204-4.1560822 4.6848755-.0508575.0507355-.1040497.1121368-.1591187.156311-.4244995.4354095-.8533478.8643723-1.29039 1.280098-.1303101.1287766-.2672882.2617645-.408371.3881912-1.1235504 1.0634537-2.2746429 2.0983124-3.4613647 3.0911102-.0861206.0823669-.1763458.1580658-.266571.2338715-.2708893.2271957-.5482178.4584961-.8191376.6856918l-.0394897.0250702c-.1058044.0947952-.2223969.1872406-.3323059.2754745-.2003632.164032-.4006042.3280792-.605072.4854431-1.0934448.8783112-2.1994171 1.7369537-3.3286133 2.5734406-.3185883.239151-.6372986.4781799-.9666595.714859-.5272827.3899536-1.0611115.7841187-1.6032562 1.1650391-.250412.1866608-.5051422.3666382-.7639465.5401611-.0746613.0565948-.1494141.1133118-.2217102.1591187-.0747375.0567169-.1495209.1134338-.2218018.1592407-1.5697632 1.1160583-3.1628265 2.2099762-4.7467499 3.2890167-1.0048676.6837006-1.992981 1.3937531-2.983551 2.1145935l-.0065613.0042267c-.0878754.0649109-.1757507.1299438-.2636261.1949615-.6151581.4549866-1.2260895.9164124-1.8328094 1.3843842-.0986481.0626984-.1824341.1342773-.2767487.2034149-.0682068.0523834-.129837.100769-.1979065.1531372-2.451004 1.8782654-4.8776245 3.8240204-7.3144531 5.7393188-.0967865.0799103-.1979065.1532593-.2946777.2330475-3.6132355 2.837204-7.2551575 5.6002197-11.0301971 7.9497528-2.4822693 1.5383453-4.322937 2.0240326-5.6950226 1.7511292-.2173538-.0373688-.4233398-.100296-.613739-.182312-3.6478958-1.4755554-3.3934174-9.1259308-3.7582855-14.8891296-.0707703-1.1724243-.167305-2.2547455-.3273773-3.2045288-.23423-1.4007874-.4988022-2.7915039-.7938385-4.1721344-.3218765-1.5388184-.6781921-3.074234-1.078331-4.5910339-1.6070099-6.2384567-3.8008194-12.3257599-6.5449829-18.1469727-.389595-.8318024-.7921982-1.6552811-1.2056961-2.4811096-2.4110413-4.7875214-5.2246857-9.4393539-7.0842056-14.4477463-.4374008-1.198082-.8312149-2.4144363-1.1468582-3.6529465-.8736496-3.4113388-1.079155-7.135994-.383873-10.5745087.3113251-1.5440903.8070831-3.0300674 1.5098953-4.4075394.684967-1.3477097 1.56633-2.5894928 2.6665726-3.675087.9346848-.9250717 2.0529709-1.6624374 3.2577286-2.2056427 2.5904312-1.1643372 5.6271744-1.4221115 8.2766647-.7056046.7666473.205162 1.4992065.4873123 2.1843262.8548813 1.4085083.766304 2.6015472 1.890564 3.3976135 3.3774796.2675171.4942245.5122757 1.0398941.7678452 1.5879059.9577408 2.0759354 1.967308 4.2481842 4.0917358 4.2096329.0800323-.0046921.1600647-.0093765.2358704-.0206223 1.8468628-.1851349 2.789505-2.2313004 2.9241486-4.271965.0275269-.5523453.0054932-1.1102066-.0821533-1.6263428-.0859985-.4988022-.1893463-.995842-.3231506-1.4826965-.5205994-2.0121841-1.3978729-3.9178696-2.3558655-5.7908554-.714386-1.3727875-1.4723816-2.7270584-2.1891174-4.0890617-.1573563-.3059349-.3146057-.6118736-.4695053-.9285889-1.2253799-2.4688072-2.2481766-5.1122017-2.4771271-7.7983627-.0888138-1.0410728-.0522614-2.0880013.1353302-3.1293068.4709167-2.5859795 2.2602463-5.0127258 4.5204849-6.1888962 1.3136292-.6767807 2.7820129-.9352646 4.2554474-.5607834.2985535.0780373.581543.1751747.872818.2854309 1.1652679.4410362 2.2806396 1.0796204 3.5222931 1.1032906 2.5996857.0563583 4.5004425-2.6162109 4.882309-5.1826248.3712006-2.5688744-.2699585-5.1778183-.2242584-7.7799683.1559448-9.1279144 10.5188599-16.5158272 19.2022095-13.68894 8.6898193 2.8226662 12.7142029 14.9050655 7.4605713 22.3800373-1.6291504 2.3157806-3.9326324 4.1649857-5.1524048 6.7189789-1.226319 2.5582084-.7729804 6.3100509 1.8745264 7.3137435z" fill="#9bd8ff"/><path d="m147.0690613 77.1268616c-.4047089 2.1381531-.817627 4.263176-1.2437744 6.396637 5.0372162-6.304657 10.7038727-12.0681 16.9312134-17.2095947.3258362-.2713699.7156677.2558975.3899231.527153-6.4980927 5.3688126-12.3873901 11.4209671-17.5790253 18.0634308-.0065765.0042191-.0155945.0190964-.0288391.0275345-.3941498 1.9655533-.8033295 3.9222107-1.2257233 5.8871765-4.3777771 20.5686798-9.8329468 40.9079437-16.3045654 60.9239197 5.2881927-10.2545166 11.453186-19.9123993 18.3578796-29.0438309.1070862-.1509171.2184143-.2953873.3296204-.439743 2.740509-3.6020966 5.6003265-7.1323624 8.5705109-10.5759201.0622101-.0762787.12854-.1461182.1948547-.2158356.3684998-.4368134.7478027-.87117 1.1268463-1.3054123.9312744-1.0613403 1.8667755-2.1161194 2.8212585-3.1551971.0909271-.1038132.1817322-.2076263.2768707-.3048782 1.6835327-1.8523712 3.4011536-3.68013 5.1526337-5.4832916.2918701-.2958527.8055573.1066284.5113373.413269-1.8622131 1.9196243-3.6837616 3.85952-5.4738007 5.8346863-.0951385.0972519-.192627.2052841-.2834167.3089752-.8906403.9802628-1.7662659 1.9693069-2.6376648 2.9650345-.3480072.3961563-.6961212.7921982-1.0334625 1.1908188-.0664368.0698318-.1286469.1461105-.1949768.2159424-3.1256714 3.6344376-6.1303101 7.3579178-9.0072174 11.1665878-.1022797.1293564-.2003632.2653961-.2985535.4015427-7.4474335 9.9184723-14.0212402 20.4723663-19.548584 31.7453461-.0358582.0597534-.0801468.1062775-.1304169.128891-.1204529.3624115-.2409058.7247009-.3613586 1.0871124-.2482834.7569275-.4964523 1.5139771-.7596207 2.2620087-.1648636.5103912-.3339386 1.0142365-.5053635 1.5288544-.3656921 1.0805511-.7379456 2.1652069-1.1167603 3.2540894-.134285.3988495-.7419357.138855-.6010971-.2640991.41362-1.193985.8271179-2.3878479 1.225853-3.5908508.1733017-.4972687.348938-1.0053253.5138016-1.5157318.2170029-.6172638.4232254-1.2369843.6294479-1.8565826 2.1270142-6.3853912 4.1554871-12.8096924 6.0657501-19.2604675 1.4634705-4.9312897 2.8582764-9.883667 4.1993256-14.8479996-1.865036-6.7755737-4.0760651-13.4422913-6.6334534-19.9721527-.8311005-2.1379166-1.7034454-4.2680969-2.6150436-6.3733215-1.2381516-2.8666077-2.5478973-5.7151718-3.9168167-8.5263596-.256134-.5198898-.5080566-1.0332184-.7643127-1.5531082-.1900482-.3866653.4225235-.6278076.6083755-.2477036.2192078.4326019.4318771.8695297.6445465 1.3063507 1.3385696 2.7196732 2.6114044 5.4810562 3.8125305 8.260376.959404 2.1948547 1.86866 4.4123306 2.7365494 6.6375427 2.4807587 6.2925873 4.6280518 12.7138367 6.4534607 19.2379608 2.7555389-10.307251 5.240509-20.6919479 7.4543762-31.1257401.7564392-3.5604935 1.473877-7.1238098 2.1503143-10.6794968.551178-2.7938461 1.0653229-5.5732803 1.5644684-8.3617325l-.054245-.0854187c-.1607513-.3407364-.3108521-.678894-.4717255-1.0195084-1.8643188-4.0277786-3.7393036-8.0578995-5.5970612-12.0897827-.1256104-.2706642-.2554321-.5480118-.3811646-.818676-.1792755-.3842087.4290771-.6319084.6083527-.2477036.0351562.0699539.0595245.1374435.0946808.2073936 1.9280548 4.171669 3.8625641 8.3392334 5.8012848 12.5134735.0638733.1438904.1382599.2903519.2020111.4343567.0420532-.2387924.0817871-.4669266.1239624-.7057266 1.6289215-9.3064804 3.0645142-18.6562004 4.2671661-28.0241966.0548248-.4221725.7009125-.3341751.6460724.0879936-1.1754608 9.120182-2.5449677 18.2251282-4.1252594 27.2884827-.0168762.0753403-.0229645.1529083-.0397186.2281265-.4886015 2.7909162-1.0049895 5.5811308-1.5322569 8.3689955z" fill="#37b1ff"/><path d="m28.2047749 105.2888565c.0268459.0787354.0930347.1441193.2171192.2102051.1410751.0719452.3008976.2238007.4773579.4393921 2.8463497 3.4946518 9.9242115 24.344429 12.0417385 29.6221848 2.2420845 5.598938 12.3839989 5.1057587 12.3839989 5.1057587l-12.0862617 2.2962189s7.7009926 12.4377747 16.814846 18.088501c4.1034698 2.5392303 8.7531967 2.5950012 12.6208038 1.8973694 4.7421722-.8701172 8.3241119-2.8635559 8.3241119-2.8635559-.5646362.8396454-4.4071808 3.4189453-7.9530334 5.6875153-3.2726059 2.092804-6.2837982 3.9206848-6.2837982 3.9206848s3.1207504 1.2608795 7.1780548 2.8842926c5.8212128 2.3299561 13.5775146 5.4181366 16.8751907 6.6473846 1.7482071.6510162 4.3743896-.0973663 7.1597824-1.4511719.6417465-.3148346 1.2966232-.6560364 1.9553757-1.0307617 5.2895889-2.9669037 10.5561066-7.3630676 11.0153122-7.7526703l-9.8145523 9.875-1.6717911 1.6848145c.0516586.0179291.112587.0428925.1642609.0606995 1.0116577.3692017 2.0802689.4839172 3.1893005.404129 1.6482544-.1096802 3.3869629-.6592102 5.1207504-1.49617 4.4991608-2.1551361 9.0509338-6.2268524 12.3557663-9.6408844 1.6674652-1.7172699 3.0182266-3.2776489 3.8770905-4.3206024.6016769-.7457886.9580002-1.2288971 1.0159988-1.3516846 6.3676987-13.5541992 4.217247-24.844635.5346527-32.1969299-2.9608154-5.932518-6.9027023-9.3078842-8.1717911-9.2563248-.3522186.0133591-.4971619.2875366-.3478851.8606262.6848679 2.642807-.334404 6.0363388-1.481636 8.705864-.0856323.2252045-.1814957.4354095-.2773438.6454926-.6839294 1.4974518-1.3575516 2.6971741-1.7223053 3.3048248-.1601791.2845001-.2635193.4379883-.2635193.4379883s-.3175354-1.7280426-.8435211-4.2270813l-.0080872.0011749c-.4746628-2.2342377-1.1213303-5.0878372-1.8657227-7.8708954-.7517776-2.8397751-1.6024399-5.6170959-2.4814606-7.6087875-.23423-.5290298-.5514145-1.063446-.9515533-1.6036072-.2022247-.2861328-.4378738-.5762558-.6897888-.8641434-3.9669724-4.6314468-12.5132446-9.2208328-14.3545837-9.0776443-.3512955.0214386-.4562759.224617-.2381058.6321411.4908371.9151077.5016098 3.1278992.2909393 5.6578674-.0199203.2248535-.0397186.449707-.0585861.6826477-.0780334.7839966-.1771622 1.5954056-.2854309 2.39991-.0886993.7030258-.1935654 1.408287-.2946701 2.0800323-.0839081.4884872-.1619492.9596329-.2419739 1.4146118-.254837 1.5069504-.5149612 2.7840042-.7052612 3.5909653-.2212219.8851166-.3457718 1.1896439-.3052292.5586777.0587006-.8061447-.6402283-2.8049774-1.6964111-5.2672272-.262001-.6158524-.5536423-1.2689667-.8544159-1.9291153-.5563354-1.2274857-1.1698456-2.5132141-1.7974167-3.7806625-.1149292-.2482834-.2378616-.4955215-.3609924-.7427521-2.3661804-4.726593-4.8128433-9.0639343-5.2570419-9.186615-.615387-.1743546-8.2465439-2.8097763-13.036644-3.3078766-1.2510452-.1237335-2.301487-.1008835-2.994442.1382675-.5586739.1969604-.8752747.5430908-.8617973 1.0845413.0358543 1.3370438-.4008446 3.5262833-.9735794 5.8074951-.7774353 3.0407257-1.8070259 6.2299042-2.289772 7.6926804-.1697807.5243378-.2781639.8266449-.2781639.8266449s-.0569458-2.4371719-.8963661-5.1912918c-.9438171-3.1109161-2.8770332-6.6102448-6.8171692-7.4671249-5.676487-1.2294846-16.8176575 1.1812134-20.7227592 2.9701843-.0152321.0102005-.0384178.0215607-.0534306.0317535-.9468633.4371718-1.4464837.8321608-1.3241578 1.137039z" fill="#059eff"/><path d="m28.7343922 105.3098297.0042171.032341s10.8336983 3.8937302 25.201416 10.3767242c.061985.0330429.1227951.0580063.1928635.0899887.4294357.1987228.8669548.3963928 1.3126755.5930099 3.9147072 1.7902679 8.0753593 3.7622681 12.3231888 5.8956146.2558975.1309967.5198898.2609406.7838745.3908844 3.5969391 1.8155746 7.2584381 3.7462158 10.8912506 5.7710648.3544235.1921539.7018585.3934631 1.057457.5937042.7557602.4274445 1.5197144.8538361 2.2777023 1.2974396 1.9770355 1.1396179 3.950325 2.3125 5.8841324 3.4988708.5651169.3537445 1.1209793.7004547 1.6768417 1.0471649.4664612.2926941.9249573.586319 1.3844986.8881531 1.8781509 1.2019501 3.7180939 2.4252319 5.5116425 3.6712341.1911087.1394348.381279.2708893.5703964.394165 2.6955338 1.9094238 5.281044 3.8578796 7.7057953 5.8357391.2848434.2260132.5535202.4541473.8233643.6902466 3.9291229 3.2783508 7.3951797 6.6668396 10.1957016 10.1263428 1.6292725 2 3.0319366 4.029892 4.1643982 6.0706635.00914.0070343.00914.0070343.0102005.0151215.5487137.9814301 1.0418854 1.9784393 1.4601898 2.9688873.0226135.046402.0380859.101944.0606995.148468.7615128-.9067993 1.2163544-1.5180817 1.2812729-1.6500244 6.3217697-13.4657288 4.2363434-24.6989746.6023788-32.0576019-3.3130341-6.7340851-7.928894-10.2266235-8.5654907-9.2457809-.1042862.1454086-.1150589.3772888-.0309296.7037354.6910782 2.6913147-.3671036 6.1640549-1.5364761 8.8529129-.1646271.3756409-.3244476.7258759-.4852066 1.0680084-.8961334 1.8875275-1.7220612 3.1813354-1.7220612 3.1813354s-.0219269-.1041718-.0544968-.2891846c-.1089706-.5783539-.3748322-1.9756317-.7640762-3.8094788-.4736099-2.2260284-1.1212158-5.0877151-1.8606873-7.8960876-.7652512-2.8791428-1.6292725-5.6959534-2.5205994-7.7189255-.1891174-.4361115-.4450226-.8799591-.7585678-1.3243942-.1850204-.2801514-.4034271-.5642929-.639061-.8542938-4.1899414-5.1372833-14.3254166-10.357399-14.9152451-9.209816-.0602417.1067429-.0389099.2685547.0799026.4834442.5018463.9381943.500206 3.2432022.274765 5.8492203-.0198059.2248459-.0397186.4496994-.0584717.6826401-.0861206.7850494-.1771622 1.5954132-.2855453 2.39991-.0967865.7040863-.2027054 1.4012604-.3035736 2.0730057-.1375809.8329697-.2712708 1.632431-.4073105 2.3499908-.4740753 2.5317307-.8874435 4.0841446-.8121109 3.0287781.009491-.1164703-.0005875-.2550888-.0207443-.4088135-.1265411-.9627991-.761261-2.7233047-1.6530533-4.8120117-.2630539-.6239395-.5536423-1.2689667-.8554764-1.9372025-.5327606-1.1728821-1.1134796-2.3970947-1.7092972-3.6111145-.1229019-.2472305-.2460632-.4944611-.3690948-.7416916-2.3940506-4.8134155-4.9144135-9.2728577-5.3676376-9.402565-.6407928-.1792755-8.892746-3.0293579-13.6261368-3.345726-1.1960869-.0814362-2.1653328-.0035095-2.7218971.3330078-.3601875.2037582-.5504723.5086365-.5448494.9276428.0346832 1.3289642-.4020157 3.5182037-.9838753 5.7923889-1.0378036 4.1285477-2.5578613 8.5345535-2.5578613 8.5345535s-.0075111-.2459412-.0385628-.6698685c-.0840111-.9520264-.3092155-2.7910309-.9299927-4.758934-.9687767-3.0499802-2.8990631-6.40168-6.7447548-7.2297287-5.8378487-1.2659225-17.4657249 1.3239212-21.039711 3.1270752-.0152321.0102005-.0384178.0215607-.0534306.0317535-.3704834.188652-.6506538.3735504-.8186779.5355988z" fill="#cdecff" opacity=".49"/><path d="m122.4864273 165.0135193c-.022377.0236664-.050499.0422974-.0808487.0548401-.1377716.0581207-.3108521-.0128937-.3871307-.1575928-4.3039398-8.243866-12.3378372-16.640625-23.8774796-24.9565277l-.2160797-.1560822-.219223.0978394c-1.2015839.5379333-2.4265137 1.0926361-3.6694717 1.6565704-6.0928116 2.7616272-12.3791962 5.6117096-18.4587631 7.6062164-.1436539.0472107-.3127365-.0363312-.3782349-.184906-.045578-.1046295-.0289383-.2199249.0422974-.2947998.0269547-.028244.0599976-.0487518.0978546-.0610504 6.0629196-1.9887543 12.3400421-4.8345032 18.4098969-7.5866394 1.0080261-.4566193 2.0002518-.9062042 2.9823685-1.3471222l.6335449-.2846069-.6303787-.4437256c-7.8106689-5.4914856-17.1595688-10.9590759-27.7885666-16.2517242l-.1539688-.077095-.1540756.0408859c-3.0052261.7917328-6.4438629 1.8768616-10.0848427 3.02491-1.4900894.4706802-3.0040627.9481506-4.5161667 1.4140244-.0694809.0216827-.1468163.0132446-.2173538-.022377-.0711212-.036438-.1268959-.096077-.1572304-.1688461-.0438347-.1040497-.0264931-.215004.0445251-.2892914.0277557-.0291824.0625572-.0507355.1034508-.0637436 1.509758-.4655228 3.0226936-.9420624 4.5120506-1.4116898 2.9440575-.9291687 5.9881744-1.8895111 8.6547699-2.6353073l1.0176544-.2846069-1.0298386-.5033722c-20.4437752-9.98983-38.4206161-15.904541-38.6001205-15.9626541-.0748596-.0248413-.1393032-.0755768-.1806793-.142952-.0420647-.0677261-.0568275-.1448288-.0408916-.2167664.0093727-.0452347.0304642-.0842514.0605774-.1157684.0681934-.0713577.1736488-.0946732.2772274-.0615158.1884136.0614014 19.199295 6.2930603 40.1834641 16.6817398 2.279808 1.1288376 4.5985184 2.3169556 6.893692 3.5320282l.9184952.4870834-.3566666-.9595184c-1.7706985-4.7621002-5.9367447-16.8114548-6.2925949-17.9411087-.0302277-.0972519-.0101929-.1949692.0538025-.2619934.034668-.0363235.0784988-.0598755.130394-.0694809.0721817-.0149994.1492767.0011673.2168884.0432358.0680771.0426483.118103.1072083.1418915.1813812.5780106 1.8372498 5.7937927 16.8014908 6.796196 19.2507324l.0671539.1647415.1594543.0864716c8.677742 4.6853485 16.3194504 9.4719391 22.7126923 14.2268829l.6838074.5081635-.0288239-.8002777c-.2969131-8.3667603-2.1191635-16.450325-3.8624496-23.2535553-.0234299-.091629-.0016403-.1813812.0594101-.2452393.0379639-.0399551.0885849-.0653839.1465836-.0739365.1502151-.0200348.306633.0897598.3467102.2447739 1.8278809 7.1364594 3.7226639 15.5956726 3.9203339 24.2271271l-.0401764.2625885.2151108.2152405c9.9233932 7.5929718 16.9795914 15.3196259 20.9717484 22.9647217.0561291.1085051.0435864.2346953-.0319904.3136748z" fill="#69c5ff"/><ellipse cx="126.086647" cy="215.742615" fill="#dceef2" rx="72.035431" ry="3.417548"/><path d="m182.3027191 199.1060944c0 9.4619751-7.6702881 17.1323853-17.1321411 17.1323853-9.4617462 0-17.1321564-7.6704102-17.1321564-17.1323853 0-9.4616089 7.6704102-17.132019 17.1321564-17.132019 9.461853-.0000001 17.1321411 7.6704101 17.1321411 17.132019z" fill="#d91a3d"/><path d="m174.2796173 199.1060944c0 5.030899-4.0782776 9.1090546-9.1090393 9.1090546-5.030777 0-9.1088257-4.0781555-9.1088257-9.1090546 0-5.0305328 4.0780487-9.1088104 9.1088257-9.1088104 5.0307617-.0000001 9.1090393 4.0782775 9.1090393 9.1088104z" fill="#fff"/><path d="m196.1691895 176.9236145v11.3187866c0 5.9991913-4.8626251 10.8618317-10.8500977 10.8618317h-.7381897c0-10.7212219-8.6824188-19.4153595-19.4153442-19.4153595-10.7212219 0-19.4153595 8.6941376-19.4153595 19.4153595h-39.3697128c0-10.7212219-8.6941452-19.4153595-19.4270706-19.4153595-10.7212143 0-19.4153595 8.6941376-19.4153595 19.4153595h-9.654953c-5.9991913 0-10.8618202-4.8626404-10.8618202-10.8618317v-32.1987915c0-9.057373 3.6674767-17.2593994 9.6080818-23.2000122 5.9288902-5.9405975 14.1309128-9.608078 23.1882858-9.608078 21.9931412 0 51.1337509-3.5737381 69.9515305 7.7919159l37.5418243 30.1951599c2.5426331 1.5349579 4.6282959 3.644043 6.1280823 6.0929413 1.7575835 2.835556 2.7301025 6.1515045 2.7301025 9.608078z" fill="#f2b705"/><path d="m104.0914078 199.1060944c0 9.4619751-7.6704178 17.1323853-17.1323853 17.1323853-9.4617386 0-17.1320343-7.6704102-17.1320343-17.1323853 0-9.4616089 7.6702957-17.132019 17.1320343-17.132019 9.4619675-.0000001 17.1323853 7.6704101 17.1323853 17.132019z" fill="#d91a3d"/><path d="m96.0680695 199.1060944c0 5.030899-4.0781631 9.1090546-9.1090469 9.1090546-5.0305328 0-9.1088181-4.0781555-9.1088181-9.1090546 0-5.0305328 4.0782852-9.1088104 9.1088181-9.1088104 5.0308837-.0000001 9.1090469 4.0782775 9.1090469 9.1088104z" fill="#fff"/><path d="m165.1706848 156.7662048s-19.7251434-18.5973816-24.2675476-20.7003784c-10.5454559-4.8821869-25.9729919-3.515152-25.9729919-3.515152v24.2155304z" fill="#fff"/><path d="m196.1691895 176.9236145v2.6363678h-13.4044495c-2.0856476 0-3.7846375-1.6989899-3.7846375-3.7846527v-4.6868744c0-2.0856476 1.6989899-3.7729187 3.7846375-3.7729187h10.6743469c1.7575836 2.835556 2.7301026 6.1515045 2.7301026 9.608078z" fill="#fff"/><path d="m130.844635 46.7099533c1.0102692-.1036987 2.0252075-.1556053 3.0408478-.1556053 16.3445282 0 29.7940826 13.4495583 29.7940826 29.7940788s-13.4495544 29.7940826-29.7940826 29.7940826-29.794075-13.4495621-29.794075-29.7940826c0-7.792038 3.0567703-15.2814217 8.5091248-20.8480148" style="fill:none;stroke:#d91a3d;stroke-width:5;stroke-linecap:round;stroke-linejoin:round;stroke-miterlimit:10"/><path d="m133.885483 76.348427 8.824097-15.71191" style="fill:none;stroke:#d91a3d;stroke-width:5;stroke-linecap:round;stroke-linejoin:round;stroke-miterlimit:10"/><path d="m133.885483 46.554348v-9.05925" style="fill:none;stroke:#d91a3d;stroke-width:5;stroke-linecap:round;stroke-linejoin:round;stroke-miterlimit:10"/><path d="m128.430084 34.419342h10.910813" style="fill:none;stroke:#d91a3d;stroke-width:5;stroke-linecap:round;stroke-linejoin:round;stroke-miterlimit:10"/><path d="m108.29039 37.495098h-38.463402" style="fill:none;stroke:#d91a3d;stroke-width:5;stroke-linecap:round;stroke-linejoin:round;stroke-miterlimit:10"/><path d="m91.495796 57.951294h-50.774502" style="fill:none;stroke:#d91a3d;stroke-width:5;stroke-linecap:round;stroke-linejoin:round;stroke-miterlimit:10"/><path d="m86.959137 80.604576h-12.64856" style="fill:none;stroke:#d91a3d;stroke-width:5;stroke-linecap:round;stroke-linejoin:round;stroke-miterlimit:10"/><path d="m96.06807 100.133118h-40.114449" style="fill:none;stroke:#d91a3d;stroke-width:5;stroke-linecap:round;stroke-linejoin:round;stroke-miterlimit:10"/><path d="m82.6339798 153.1917725h17.9024353c0 9.8210907-8.0814514 17.9025421-17.9024353 17.9025421-9.821106 0-17.9025574-8.0814514-17.9025574-17.9025421 0-9.8209839 8.0814514-17.9025574 17.9025574-17.9025574 4.1279602 0 8.1315994 1.4278564 11.3280487 4.0398407z" fill="#fff"/><path d="m88.2247238 150.5015106 11.3525238-13.8426819c2.0475769 1.679306 3.6972351 3.792038 4.8298187 6.1856232 1.1325836 2.393692 1.7200775 5.0089722 1.7200775 7.6570587z" fill="#fff"/><path d="m97.7131577 153.1917725c0 8.2707977-6.8081436 15.0788269-15.0788269 15.0788269-8.273613 0-15.0788345-6.8080292-15.0788345-15.0788269 0-8.270813 6.8052216-15.0788422 15.0788345-15.0788422 3.4928894 0 6.8785629 1.2142487 9.5752716 3.4309082l-4.1424866 5.0375671-3.303772 4.0209808-2.1290131 2.589386h15.078827z" fill="#d91a3d"/><path d="m103.303894 150.5009155h-15.0788345l9.5780869-11.6452332c1.7197342 1.4147339 3.1062241 3.1937561 4.0577774 5.2070007.9487381 2.0133668 1.4429702 4.2130281 1.4429702 6.4382325z" fill="#d91a3d"/><g fill="none" stroke-miterlimit="10"><path d="m44.589253 13.573198h4.72694" stroke="#f9a63a"/><path d="m58.786366 13.573198h4.726841" stroke="#f9a63a"/><path d="m47.3606 6.882575 3.342437 3.342441" stroke="#f9a63a"/><path d="m57.399403 16.921381 3.342441 3.342442" stroke="#f9a63a"/><path d="m54.05122 4.111229v4.726942" stroke="#f9a63a"/><path d="m54.05122 18.308226v4.726942" stroke="#f9a63a"/><path d="m60.741844 6.882575-3.342441 3.342441" stroke="#f9a63a"/><path d="m50.703037 16.921381-3.342437 3.342442" stroke="#f9a63a"/><path d="m182.302597 2.5c2.1952209 0 3.974823 1.7794871 3.974823 3.9747s-1.7796021 3.9747-3.974823 3.9747c-2.1952057 0-3.9746857-1.7794876-3.9746857-3.9747s1.7794801-3.9747 3.9746857-3.9747z" stroke="#f9a63a"/><path d="m91.4957962 8.928628c1.2598267 0 2.2810974 1.0212688 2.2810974 2.2810993s-1.0212708 2.2810993-2.2810974 2.2810993c-1.2598343 0-2.2812195-1.0212688-2.2812195-2.2810993s1.0213852-2.2810993 2.2812195-2.2810993z" stroke="#f9a63a"/><path d="m203.8284607 133.8697968c1.2598419 0 2.2812195 1.0212708 2.2812195 2.2810974s-1.0213776 2.2810974-2.2812195 2.2810974c-1.2598267 0-2.2810822-1.0212708-2.2810822-2.2810974s1.0212555-2.2810974 2.2810822-2.2810974z" stroke="#f9a63a"/><path d="m46.9526062 226.9985962c1.2598305 0 2.2812157 1.0212708 2.2812157 2.2810974 0 1.2598419-1.0213852 2.2811127-2.2812157 2.2811127s-2.2811012-1.0212708-2.2811012-2.2811127c0-1.2598267 1.0212707-2.2810974 2.2811012-2.2810974z" stroke="#f9a63a"/><path d="m165.4380798 4.1936002c1.2598267 0 2.2812195 1.0212693 2.2812195 2.2810998s-1.0213928 2.2810993-2.2812195 2.2810993c-1.2598419 0-2.2810974-1.0212688-2.2810974-2.2810993s1.0212555-2.2810998 2.2810974-2.2810998z" stroke="#f9a63a"/><path d="m128.7405853 229.2796936c1.2598419 0 2.2812195 1.0212708 2.2812195 2.2811127 0 1.2598267-1.0213776 2.2810974-2.2812195 2.2810974-1.2598114 0-2.2810974-1.0212708-2.2810974-2.2810974 0-1.2598419 1.021286-2.2811127 2.2810974-2.2811127z" stroke="#f9a63a"/><path d="m104.632286 233.841782h7.3162" stroke="#f9a63a"/><path d="m108.29039 230.183685v7.316315" stroke="#f9a63a"/><path d="m29.321072 176.973297 5.173484 5.173371" stroke="#f9a63a"/><path d="m34.494556 176.973297-5.173484 5.173371" stroke="#f9a63a"/><path d="m179.715942 231.255219 5.173462 5.17337" stroke="#f9a63a"/><path d="m184.889404 231.255219-5.173462 5.17337" stroke="#f9a63a"/><path d="m186.914719 42.47572 5.173385 5.173366" stroke="#f9a63a"/><path d="m192.088104 42.47572-5.173385 5.173366" stroke="#f9a63a"/></g></svg>