<?xml version="1.0" encoding="utf-8"?>
<!-- Generator: Adobe Illustrator 25.4.1, SVG Export Plug-In . SVG Version: 6.00 Build 0)  -->
<svg version="1.1" id="Слой_1" xmlns="http://www.w3.org/2000/svg" xmlns:xlink="http://www.w3.org/1999/xlink" x="0px" y="0px"
	 viewBox="0 0 36 36" style="enable-background:new 0 0 36 36;" xml:space="preserve">
<style type="text/css">
	.st0{fill:#F2B705;}
	.st1{fill:#D91A3D;}
</style>
<g>
	<path class="st0" d="M15.6143503,18h15.2788c0,8.3817997-6.8971004,15.2789001-15.2788,15.2789001
		C7.2325501,33.2789001,0.3354504,26.3817997,0.3354504,18c0-8.3816996,6.8970995-15.2789001,15.2789001-15.2789001
		c3.5229998,0,6.9399004,1.2185998,9.6678991,3.4477999L15.6143503,18z"/>
	<path class="st0" d="M20.3857632,15.7040005l9.6887875-11.8140001c1.7474995,1.4332001,3.1553993,3.2362998,4.1219978,5.2790995
		c0.9666023,2.0429001,1.4680023,4.2749004,1.4680023,6.5349007H20.3857632z"/>
	<path class="st1" d="M28.4836502,18c0,7.0587006-5.8104,12.8689995-12.8690004,12.8689995
		c-7.0611,0-12.8689995-5.8102989-12.8689995-12.8689995S8.5535498,5.131,15.6146498,5.131
		c2.9809999,0,5.8704996,1.0363002,8.1719999,2.9281001l-3.5354004,4.2993002l-2.8195992,3.4316998L15.6146498,18H28.4836502z"/>
	<path class="st1" d="M33.2550507,15.7034998H20.3860493l8.1744003-9.9385996
		c1.467701,1.2073998,2.651001,2.7256994,3.4630985,4.4439001C32.8332481,11.9271002,33.2550507,13.8044004,33.2550507,15.7034998z"
		/>
</g>
</svg>
