<svg enable-background="new 0 0 24 24" viewBox="0 0 24 24" xmlns="http://www.w3.org/2000/svg"><path d="m23.9015713 4.4911499c-.7620792.3446946-1.6050014.5537219-2.4272671.6919017.3901978-.065712.9634037-.7723532 1.193367-1.0582027.3505573-.4357533.6415443-.9324732.8054619-1.4689441.0212708-.0418725.0366783-.0944645-.0051937-.1260643-.0528679-.0209363-.0867043-.0102727-.1285763.0106635-.9178448.4920301-1.8672905.8483932-2.8780384 1.1011918-.0834084.0209363-.145937 0-.1984749-.052536-.083746-.0944645-.1623554-.1837368-.2513485-.2572091-.424696-.3615553-.88027-.6448369-1.3939629-.8542554-.6745949-.2748513-1.4116631-.3913126-2.1380672-.3443038-.706974.0459483-1.4009991.2450938-2.0281944.5728161-.6287012.3284483-1.1897936.7855844-1.6365452 1.3367388-.4618816.5702477-.8024454 1.2433348-.977026 1.9572892-.1682158.6885519-.1546488 1.3701248-.051754 2.0660467.0154085.1157351.0051365.1311445-.0992661.1157351-3.9523758-.588225-7.2284264-2.0024558-9.8882238-5.0330218-.1153449-.1315913-.1778187-.1315913-.2726181.0099378-1.1640005 1.7445214-.5992796 4.54691.8546462 5.9243481.1940093.1837931.3931551.3671389.6077099.5346851-.0782738.0161343-1.0456966-.088603-1.9080473-.5346851-.1154007-.073081-.1734081-.031209-.1837367.0999918-.0106635.1884823.0055272.3618908.0315998.5661726.223041 1.7684727 1.4476728 3.4039021 3.1250293 4.0420952.1990895.0838003.4192276.1572733.6337824.1940088-.3821006.0838013-.7756467.143651-1.8713098.0577288-.136337-.0261288-.1884823.0422068-.136337.1730165.8234375 2.244257 2.6006734 2.912262 3.931885 3.2925205.1782093.0312653.3563628.0312653.5352983.0731373-.0109987.0161915-.0216064.0161915-.0319347.031601-.4412808.6731415-1.9719715 1.1739368-2.6851459 1.4230518-1.2963161.4533958-2.7079787.6569519-4.0781035.5221214-.2194121-.0323811-.2653044-.0297565-.3248192 0-.0602964.0370712-.0077045.0896645.0628646.1462193.2780894.1837368.5609802.3465366.849454.5037537.8700553.4611568 1.7772933.8285751 2.7259574 1.0904732 4.8993073 1.3529301 10.417716.3587074 14.0964127-3.2961502 2.8887024-2.869998 3.9013462-6.8282919 3.9013462-10.7913876 0-.1550398.1829567-.2406831.2917137-.3225856.7517509-.5647769 1.3580647-1.2404876 1.9187679-1.9951982.1256716-.1693883.1271231-.3200179.1271231-.3821006 0-.0106635 0-.0206013 0-.0206013 0-.0635347-.0014515-.044385-.0984287 0z" fill="#00b1e3"/></svg>